<?xml version="1.0" encoding="UTF-8" standalone="no"?>
<!-- Generator: Adobe Illustrator 16.0.0, SVG Export Plug-In . SVG Version: 6.00 Build 0)  -->

<svg
   xmlns:dc="http://purl.org/dc/elements/1.1/"
   xmlns:cc="http://creativecommons.org/ns#"
   xmlns:rdf="http://www.w3.org/1999/02/22-rdf-syntax-ns#"
   xmlns:svg="http://www.w3.org/2000/svg"
   xmlns="http://www.w3.org/2000/svg"
   xmlns:sodipodi="http://sodipodi.sourceforge.net/DTD/sodipodi-0.dtd"
   xmlns:inkscape="http://www.inkscape.org/namespaces/inkscape"
   version="1.1"
   id="레이어_1"
   x="0px"
   y="0px"
   width="394.58215"
   height="106.8466"
   viewBox="0 0 394.58215 106.8466"
   enable-background="new 0 0 841.89 595.28"
   xml:space="preserve"
   inkscape:version="0.91 r13725"
   sodipodi:docname="shinsoo-logo.svg"
   inkscape:export-filename="C:\Users\Seonghyeon\OneDrive\홈페이지 템플릿\신수상사 템플릿\shinsoo-logo.png"
   inkscape:export-xdpi="47.299999"
   inkscape:export-ydpi="47.299999"><metadata
     id="metadata131"><rdf:RDF><cc:Work
         rdf:about=""><dc:format>image/svg+xml</dc:format><dc:type
           rdf:resource="http://purl.org/dc/dcmitype/StillImage" /><dc:title></dc:title></cc:Work></rdf:RDF></metadata><defs
     id="defs129" /><sodipodi:namedview
     pagecolor="#ffffff"
     bordercolor="#666666"
     borderopacity="1"
     objecttolerance="10"
     gridtolerance="10"
     guidetolerance="10"
     inkscape:pageopacity="0"
     inkscape:pageshadow="2"
     inkscape:window-width="1410"
     inkscape:window-height="819"
     id="namedview127"
     showgrid="false"
     fit-margin-top="0"
     fit-margin-left="0"
     fit-margin-right="0"
     fit-margin-bottom="0"
     inkscape:zoom="0.39645207"
     inkscape:cx="196.46817"
     inkscape:cy="53.467675"
     inkscape:window-x="2018"
     inkscape:window-y="64"
     inkscape:window-maximized="0"
     inkscape:current-layer="레이어_1" /><g
     id="g3"
     transform="translate(-224.47684,-244.26109)"><g
       id="g5"><g
         id="g7"><g
           id="g9"><path
             d="m 463.182,303.127 c 2.401,0 4.34,-1.941 4.34,-4.346 0,-2.398 -1.938,-4.347 -4.34,-4.347 -2.404,0 -4.344,1.948 -4.344,4.347 0,2.405 1.939,4.346 4.344,4.346"
             id="path11"
             inkscape:connector-curvature="0" /><g
             id="g13"><path
               d="m 399.228,308.152 -4.675,-0.807 c -6.422,-1.113 -7.128,-2.246 -7.128,-4.397 0,-2.359 3.144,-3.826 8.203,-3.826 4.17,0 7.043,1.333 7.855,3.64 0.441,1.354 1.912,2.198 3.835,2.198 0.347,0 0.788,-0.046 1.375,-0.144 2.009,-0.45 3.248,-1.606 3.248,-3.034 0,-0.359 -0.101,-0.679 -0.183,-0.959 l -0.03,-0.076 c -2.091,-4.994 -8.051,-7.85 -16.33,-7.85 -9.956,0 -16.39,4 -16.39,10.185 0,7.076 5.509,9.401 13.779,10.72 l 4.301,0.676 c 6.836,1.102 8.166,2.682 8.166,5.016 0,2.654 -3.774,4.508 -9.176,4.508 -5.415,0 -8.401,-1.501 -9.685,-4.857 -0.527,-1.343 -2.006,-2.152 -3.963,-2.152 -0.372,0 -0.782,0.067 -1.193,0.134 -2.005,0.354 -3.36,1.595 -3.36,3.102 0,0.305 0.07,0.572 0.134,0.834 l 0.064,0.234 c 1.488,4.161 5.822,9.116 18.003,9.116 10.646,0 17.522,-4.335 17.522,-11.04 0,-7.386 -5.049,-9.632 -14.372,-11.221 z"
               id="path15"
               inkscape:connector-curvature="0" /><path
               d="m 466.992,309.571 c 0,-2.24 -1.811,-4.055 -4.051,-4.055 -2.246,0 -4.055,1.814 -4.055,4.055 l 0,0 0,16.21 0,0 0,0 c 0,2.24 1.809,4.063 4.055,4.063 2.24,0 4.051,-1.823 4.051,-4.063 l 0,0 0,0 0,-16.21 0,0 z"
               id="path17"
               inkscape:connector-curvature="0" /><path
               d="m 453.004,297.99 c 0,-2.246 -1.817,-4.054 -4.049,-4.054 -2.246,0 -4.06,1.808 -4.06,4.054 l 0,8.108 0,0 c 0,0.953 -0.779,1.729 -1.735,1.741 l -0.003,0 -0.006,0 -16.208,0 0,0 -0.009,0 c -0.953,-0.012 -1.731,-0.788 -1.731,-1.734 l 0,-0.007 0,-0.009 0,-8.099 -0.004,0 c 0,-2.246 -1.811,-4.054 -4.054,-4.054 -2.234,0 -4.045,1.808 -4.045,4.054 l 0,0 0,27.792 0,0 0,0 c 0,2.24 1.811,4.063 4.045,4.063 2.243,0 4.054,-1.823 4.054,-4.063 l 0,0 0.004,0 0,-8.096 0,-0.003 0,-0.013 c 0,-0.949 0.772,-1.726 1.731,-1.726 l 0.009,0 0.006,0 16.202,0 0.006,0 0.013,0 c 0.946,0 1.726,0.776 1.726,1.738 l 0,0 0,0 0,8.099 0,0 c 0,2.24 1.813,4.063 4.06,4.063 2.231,0 4.049,-1.823 4.049,-4.063 l 0,0 0,0 0,-27.791 -10e-4,0 z"
               id="path19"
               inkscape:connector-curvature="0" /><path
               d="m 508.788,297.99 c 0,-2.246 -1.817,-4.054 -4.055,-4.054 -2.24,0 -4.054,1.808 -4.054,4.054 l 0,15.207 c -0.004,0.633 -0.523,1.156 -1.16,1.156 -0.341,0 -0.63,-0.14 -0.837,-0.368 l -18.566,-18.502 c -0.739,-0.941 -1.893,-1.546 -3.184,-1.546 -2.24,0 -4.054,1.808 -4.054,4.054 l 0,27.792 0,0 c 0,2.24 1.813,4.063 4.054,4.063 2.241,0 4.061,-1.823 4.061,-4.063 l 0,0 0,0 0,-15.16 0,0 c 0,-0.646 0.518,-1.16 1.156,-1.16 0.311,0 0.594,0.131 0.807,0.332 l 18.844,18.792 0,0 c 0.748,0.772 1.777,1.26 2.934,1.26 2.237,0 4.055,-1.823 4.055,-4.063 l 0,0 0,0 0,-27.794 -10e-4,0 z"
               id="path21"
               inkscape:connector-curvature="0" /><path
               d="m 534.687,308.408 -4.682,-0.813 c -6.413,-1.117 -7.122,-2.249 -7.122,-4.386 0,-2.368 3.141,-3.842 8.203,-3.842 4.176,0 7.037,1.337 7.853,3.644 0.441,1.354 1.911,2.194 3.832,2.194 0.355,0 0.791,-0.042 1.378,-0.149 2.003,-0.444 3.248,-1.606 3.248,-3.021 0,-0.362 -0.104,-0.679 -0.183,-0.965 l -0.03,-0.073 c -2.094,-4.989 -8.051,-7.856 -16.329,-7.856 -9.959,0 -16.384,4 -16.384,10.181 0,7.083 5.502,9.411 13.775,10.726 l 4.294,0.679 c 6.84,1.108 8.17,2.682 8.17,5.017 0,2.65 -3.769,4.514 -9.177,4.514 -5.418,0 -8.41,-1.501 -9.691,-4.854 -0.515,-1.357 -2,-2.158 -3.953,-2.158 -0.378,0 -0.811,0.07 -1.196,0.134 -2.013,0.341 -3.357,1.592 -3.357,3.102 0,0.295 0.067,0.569 0.131,0.831 l 0.063,0.231 c 1.492,4.148 5.823,9.118 18.004,9.118 10.649,0 17.525,-4.334 17.525,-11.042 0,-7.386 -5.053,-9.644 -14.372,-11.212 z"
               id="path23"
               inkscape:connector-curvature="0" /><path
               d="m 601.068,293.844 c -6.942,0 -12.966,3.96 -15.964,9.721 -3.007,-5.761 -9.03,-9.721 -15.967,-9.721 -9.923,0 -18.001,8.083 -18.001,17.998 0,9.932 8.078,18.003 18.001,18.003 6.937,0 12.96,-3.957 15.958,-9.719 3.004,5.765 9.03,9.719 15.973,9.719 9.923,0 17.991,-8.071 17.991,-18.003 10e-4,-9.914 -8.068,-17.998 -17.991,-17.998 z m -31.93,28.38 c -5.726,0 -10.379,-4.651 -10.379,-10.382 0,-5.723 4.653,-10.379 10.379,-10.379 5.728,0 10.382,4.656 10.382,10.379 0,5.73 -4.655,10.382 -10.382,10.382 z m 31.93,0 c -5.729,0 -10.385,-4.651 -10.385,-10.382 0,-5.723 4.656,-10.379 10.385,-10.379 5.719,0 10.376,4.656 10.376,10.379 0,5.73 -4.657,10.382 -10.376,10.382 z"
               id="path25"
               inkscape:connector-curvature="0" /></g></g></g></g><g
       id="g27"><g
         id="g29"><linearGradient
           id="SVGID_1_"
           gradientUnits="userSpaceOnUse"
           x1="351.56979"
           y1="307.41409"
           x2="317.09491"
           y2="341.88901"><stop
             offset="0"
             style="stop-color:#007E8C"
             id="stop32" /><stop
             offset="0.2305"
             style="stop-color:#008B97"
             id="stop34" /><stop
             offset="0.7468"
             style="stop-color:#3BABB0"
             id="stop36" /><stop
             offset="1"
             style="stop-color:#5CBABA"
             id="stop38" /></linearGradient><path
           d="m 339.152,319.834 c -2.018,-2.009 -3.138,-4.568 -3.366,-7.198 -0.034,-0.401 -0.098,-0.791 -0.158,-1.187 -0.73,4.029 -2.575,7.764 -5.476,10.665 l -0.131,0.134 c -3.202,3.201 -7.417,5.122 -11.922,5.667 -2.706,0.329 -5.32,1.613 -7.305,3.844 -3.841,4.335 -3.881,10.958 -0.076,15.331 4.474,5.145 12.281,5.348 17.029,0.605 2.006,-2.005 3.126,-4.568 3.357,-7.197 0.365,-4.17 2.298,-8.042 5.263,-11.01 l 1.038,-1.031 c 2.955,-2.962 6.836,-4.895 11.006,-5.26 0.106,-0.006 0.213,-0.03 0.322,-0.046 -3.414,0.403 -6.969,-0.7 -9.581,-3.317 z"
           id="path40"
           inkscape:connector-curvature="0"
           style="fill:url(#SVGID_1_)" /></g><g
         id="g42"><linearGradient
           id="SVGID_2_"
           gradientUnits="userSpaceOnUse"
           x1="311.00101"
           y1="275.22849"
           x2="355.80801"
           y2="320.03549"><stop
             offset="0"
             style="stop-color:#0087BD"
             id="stop45" /><stop
             offset="1"
             style="stop-color:#8BC0E2"
             id="stop47" /></linearGradient><path
           d="m 356.096,303.9 c -1.981,-2.237 -4.599,-3.519 -7.308,-3.838 -4.496,-0.554 -8.717,-2.475 -11.925,-5.68 l -0.125,-0.127 c -3.202,-3.205 -5.125,-7.427 -5.677,-11.922 0,-0.012 -0.003,-0.03 -0.003,-0.04 0.429,3.439 -0.676,7.034 -3.312,9.679 -2.015,2.009 -4.581,3.129 -7.201,3.366 -0.344,0.027 -0.685,0.085 -1.032,0.14 3.777,0.572 7.262,2.405 9.977,5.116 l 1.032,1.038 c 2.964,2.959 4.897,6.836 5.263,11.003 0.228,2.63 1.348,5.189 3.366,7.198 4.736,4.739 12.546,4.538 17.02,-0.605 3.803,-4.374 3.764,-10.994 -0.075,-15.328 z"
           id="path49"
           inkscape:connector-curvature="0"
           style="fill:url(#SVGID_2_)" /></g><g
         id="g51"><linearGradient
           id="SVGID_3_"
           gradientUnits="userSpaceOnUse"
           x1="284.3696"
           y1="318.8916"
           x2="328.3526"
           y2="274.9086"><stop
             offset="0"
             style="stop-color:#828781"
             id="stop54" /><stop
             offset="0.2653"
             style="stop-color:#959791"
             id="stop56" /><stop
             offset="0.8066"
             style="stop-color:#C2C2C0"
             id="stop58" /><stop
             offset="1"
             style="stop-color:#D4D4D3"
             id="stop60" /></linearGradient><path
           d="m 327.139,274.948 c -4.376,-3.805 -11,-3.767 -15.331,0.079 -2.237,1.979 -3.516,4.591 -3.844,7.306 -0.545,4.496 -2.469,8.717 -5.677,11.922 l -0.127,0.127 c -2.901,2.901 -6.645,4.742 -10.665,5.476 0.396,0.064 0.788,0.125 1.19,0.161 2.627,0.229 5.189,1.349 7.198,3.357 2.584,2.584 3.686,6.081 3.333,9.45 0.009,-0.063 0.021,-0.131 0.024,-0.191 0.368,-4.167 2.304,-8.044 5.266,-11.003 l 1.035,-1.038 c 2.958,-2.955 6.833,-4.894 11.006,-5.256 2.621,-0.237 5.186,-1.357 7.201,-3.366 4.735,-4.742 4.535,-12.547 -0.609,-17.024 z"
           id="path62"
           inkscape:connector-curvature="0"
           style="fill:url(#SVGID_3_)" /></g><g
         id="g64"><linearGradient
           id="SVGID_4_"
           gradientUnits="userSpaceOnUse"
           x1="261.57031"
           y1="285.9707"
           x2="300.47971"
           y2="247.06129"><stop
             offset="0"
             style="stop-color:#A9A4D1"
             id="stop67" /><stop
             offset="1"
             style="stop-color:#7E70A7"
             id="stop69" /></linearGradient><path
           d="m 272.021,275.516 c 2.009,2.016 3.129,4.577 3.36,7.198 0.031,0.35 0.088,0.69 0.14,1.032 0.572,-3.774 2.407,-7.259 5.123,-9.98 l 1.035,-1.03 c 2.958,-2.963 6.836,-4.891 11.006,-5.262 2.627,-0.231 5.189,-1.353 7.198,-3.357 4.739,-4.742 4.535,-12.55 -0.605,-17.029 -4.374,-3.8 -11,-3.765 -15.334,0.084 -2.225,1.978 -3.506,4.591 -3.835,7.297 -0.551,4.5 -2.472,8.717 -5.677,11.927 l -0.134,0.128 c -3.199,3.205 -7.42,5.13 -11.919,5.675 -0.003,0 -0.006,0.004 -0.009,0.004 3.43,-0.422 7.019,0.676 9.651,3.313 z"
           id="path71"
           inkscape:connector-curvature="0"
           style="fill:url(#SVGID_4_)" /></g><linearGradient
         id="SVGID_5_"
         gradientUnits="userSpaceOnUse"
         x1="254.5117"
         y1="274.95459"
         x2="300.9465"
         y2="320.40149"><stop
           offset="0"
           style="stop-color:#C8D8E0"
           id="stop74" /><stop
           offset="1"
           style="stop-color:#A5BBC3"
           id="stop76" /></linearGradient><path
         d="m 255.077,291.449 c 1.976,2.237 4.587,3.519 7.302,3.847 4.499,0.542 8.72,2.466 11.919,5.674 l 0.134,0.128 c 3.205,3.205 5.126,7.423 5.677,11.925 0.329,2.712 1.61,5.326 3.844,7.302 4.325,3.844 10.951,3.881 15.325,0.079 5.141,-4.475 5.345,-12.287 0.605,-17.026 -2.009,-2.009 -4.571,-3.129 -7.198,-3.357 -4.17,-0.368 -8.047,-2.304 -11.006,-5.262 l -1.035,-1.035 c -2.961,-2.961 -4.894,-6.836 -5.263,-11.009 -0.231,-2.621 -1.351,-5.182 -3.36,-7.198 -4.739,-4.739 -12.552,-4.531 -17.029,0.615 -3.796,4.366 -3.759,10.989 0.085,15.317 z"
         id="path78"
         inkscape:connector-curvature="0"
         style="fill:url(#SVGID_5_)" /><linearGradient
         id="SVGID_6_"
         gradientUnits="userSpaceOnUse"
         x1="226.8208"
         y1="274.95749"
         x2="273.25421"
         y2="320.40302"><stop
           offset="0"
           style="stop-color:#FDD10A"
           id="stop81" /><stop
           offset="1"
           style="stop-color:#EC692B"
           id="stop83" /></linearGradient><path
         d="m 227.386,291.449 c 1.979,2.237 4.59,3.519 7.299,3.847 4.501,0.542 8.72,2.466 11.925,5.674 l 0.128,0.128 c 3.208,3.205 5.129,7.423 5.68,11.925 0.323,2.712 1.607,5.326 3.841,7.302 4.334,3.844 10.958,3.881 15.325,0.079 5.146,-4.475 5.345,-12.287 0.608,-17.026 -2.015,-2.009 -4.568,-3.129 -7.198,-3.357 -4.173,-0.368 -8.041,-2.304 -11.009,-5.262 l -1.029,-1.035 c -2.964,-2.961 -4.897,-6.836 -5.262,-11.009 -0.231,-2.621 -1.354,-5.182 -3.366,-7.198 -4.739,-4.739 -12.552,-4.531 -17.021,0.615 -3.805,4.366 -3.768,10.989 0.079,15.317 z"
         id="path85"
         inkscape:connector-curvature="0"
         style="fill:url(#SVGID_6_)" /><g
         id="g87"><linearGradient
           id="SVGID_7_"
           gradientUnits="userSpaceOnUse"
           x1="256.67581"
           y1="318.89059"
           x2="300.65909"
           y2="274.90729"><stop
             offset="0"
             style="stop-color:#C51821"
             id="stop90" /><stop
             offset="0.2065"
             style="stop-color:#CC3328"
             id="stop92" /><stop
             offset="0.6273"
             style="stop-color:#DE6346"
             id="stop94" /><stop
             offset="1"
             style="stop-color:#F19072"
             id="stop96" /></linearGradient><path
           d="m 299.448,274.948 c -4.374,-3.805 -11,-3.767 -15.334,0.079 -2.231,1.979 -3.506,4.591 -3.841,7.306 -0.548,4.496 -2.468,8.717 -5.673,11.922 l -0.125,0.127 c -2.91,2.901 -6.65,4.742 -10.677,5.476 0.398,0.064 0.792,0.125 1.196,0.161 2.63,0.229 5.184,1.349 7.198,3.357 2.572,2.575 3.68,6.054 3.339,9.411 0.003,-0.049 0.016,-0.101 0.019,-0.152 0.368,-4.167 2.307,-8.044 5.266,-11.003 l 1.035,-1.038 c 2.958,-2.955 6.836,-4.894 11.006,-5.256 2.627,-0.237 5.187,-1.357 7.195,-3.366 4.737,-4.742 4.533,-12.547 -0.604,-17.024 z"
           id="path98"
           inkscape:connector-curvature="0"
           style="fill:url(#SVGID_7_)" /></g><g
         id="g100"><linearGradient
           id="SVGID_8_"
           gradientUnits="userSpaceOnUse"
           x1="283.3042"
           y1="275.2261"
           x2="328.11389"
           y2="320.0358"><stop
             offset="0"
             style="stop-color:#8E2A3A"
             id="stop103" /><stop
             offset="1"
             style="stop-color:#B4AB7D"
             id="stop105" /></linearGradient><path
           d="m 328.408,303.9 c -1.988,-2.237 -4.596,-3.519 -7.311,-3.838 -4.496,-0.554 -8.711,-2.475 -11.922,-5.68 l -0.128,-0.127 c -3.205,-3.205 -5.128,-7.427 -5.676,-11.922 0,-0.021 -0.006,-0.04 -0.009,-0.061 0.438,3.448 -0.664,7.049 -3.312,9.7 -2.009,2.009 -4.568,3.129 -7.195,3.366 -0.344,0.027 -0.691,0.085 -1.032,0.14 3.771,0.572 7.259,2.405 9.977,5.116 l 1.029,1.038 c 2.965,2.959 4.9,6.836 5.263,11.003 0.228,2.63 1.354,5.189 3.36,7.198 4.745,4.739 12.552,4.538 17.029,-0.605 3.802,-4.374 3.762,-10.994 -0.073,-15.328 z"
           id="path107"
           inkscape:connector-curvature="0"
           style="fill:url(#SVGID_8_)" /></g><g
         id="g109"><linearGradient
           id="SVGID_9_"
           gradientUnits="userSpaceOnUse"
           x1="323.8735"
           y1="307.41599"
           x2="289.39951"
           y2="341.89001"><stop
             offset="0"
             style="stop-color:#EFD151"
             id="stop112" /><stop
             offset="1"
             style="stop-color:#C67F54"
             id="stop114" /></linearGradient><path
           d="m 311.452,319.834 c -2.006,-2.009 -3.132,-4.568 -3.36,-7.198 -0.034,-0.401 -0.095,-0.794 -0.158,-1.193 -0.728,4.027 -2.566,7.771 -5.476,10.672 l -0.128,0.134 c -3.205,3.201 -7.42,5.122 -11.919,5.667 -2.712,0.329 -5.327,1.613 -7.308,3.844 -3.838,4.335 -3.88,10.958 -0.079,15.331 4.474,5.145 12.291,5.348 17.026,0.605 2.002,-2.005 3.129,-4.568 3.36,-7.197 0.371,-4.17 2.304,-8.042 5.265,-11.01 l 1.035,-1.031 c 2.958,-2.962 6.839,-4.895 11.009,-5.26 0.106,-0.006 0.216,-0.03 0.326,-0.046 -3.411,0.402 -6.97,-0.701 -9.593,-3.318 z"
           id="path116"
           inkscape:connector-curvature="0"
           style="fill:url(#SVGID_9_)" /></g><g
         id="g118"><linearGradient
           id="SVGID_10_"
           gradientUnits="userSpaceOnUse"
           x1="233.8804"
           y1="285.97021"
           x2="272.7879"
           y2="247.0627"><stop
             offset="0"
             style="stop-color:#F39F77"
             id="stop121" /><stop
             offset="1"
             style="stop-color:#D81B5E"
             id="stop123" /></linearGradient><path
           d="m 244.327,275.516 c 2.012,2.016 3.135,4.577 3.366,7.198 0.03,0.35 0.085,0.69 0.14,1.032 0.572,-3.774 2.405,-7.264 5.123,-9.98 l 1.029,-1.03 c 2.961,-2.963 6.836,-4.894 11.009,-5.262 2.63,-0.231 5.193,-1.353 7.198,-3.357 4.736,-4.742 4.538,-12.55 -0.608,-17.029 -4.368,-3.8 -10.991,-3.765 -15.325,0.081 -2.234,1.981 -3.518,4.595 -3.841,7.3 -0.551,4.5 -2.472,8.717 -5.68,11.927 l -0.128,0.128 c -3.205,3.205 -7.423,5.13 -11.925,5.675 -0.003,0 -0.009,0.004 -0.015,0.004 3.433,-0.422 7.021,0.676 9.657,3.313 z"
           id="path125"
           inkscape:connector-curvature="0"
           style="fill:url(#SVGID_10_)" /></g></g></g></svg>