<?xml version="1.0" encoding="UTF-8" standalone="no"?>
<!-- Generator: Adobe Illustrator 16.0.0, SVG Export Plug-In . SVG Version: 6.00 Build 0)  -->

<svg
   xmlns:dc="http://purl.org/dc/elements/1.1/"
   xmlns:cc="http://creativecommons.org/ns#"
   xmlns:rdf="http://www.w3.org/1999/02/22-rdf-syntax-ns#"
   xmlns:svg="http://www.w3.org/2000/svg"
   xmlns="http://www.w3.org/2000/svg"
   xmlns:sodipodi="http://sodipodi.sourceforge.net/DTD/sodipodi-0.dtd"
   xmlns:inkscape="http://www.inkscape.org/namespaces/inkscape"
   version="1.1"
   id="레이어_1"
   x="0px"
   y="0px"
   width="357.04477"
   height="50"
   viewBox="0 0 357.04476 49.999999"
   enable-background="new 0 0 595.28 841.89"
   xml:space="preserve"
   inkscape:version="0.91 r13725"
   sodipodi:docname="golftiger_logo.svg"><metadata
     id="metadata31"><rdf:RDF><cc:Work
         rdf:about=""><dc:format>image/svg+xml</dc:format><dc:type
           rdf:resource="http://purl.org/dc/dcmitype/StillImage" /><dc:title></dc:title></cc:Work></rdf:RDF></metadata><defs
     id="defs29" /><sodipodi:namedview
     pagecolor="#ffffff"
     bordercolor="#666666"
     borderopacity="1"
     objecttolerance="10"
     gridtolerance="10"
     guidetolerance="10"
     inkscape:pageopacity="0"
     inkscape:pageshadow="2"
     inkscape:window-width="944"
     inkscape:window-height="641"
     id="namedview27"
     showgrid="false"
     fit-margin-top="0"
     fit-margin-left="0"
     fit-margin-right="0"
     fit-margin-bottom="0"
     inkscape:zoom="0.28032165"
     inkscape:cx="132.923"
     inkscape:cy="18.312995"
     inkscape:window-x="2203"
     inkscape:window-y="96"
     inkscape:window-maximized="0"
     inkscape:current-layer="레이어_1" /><g
     id="g3"
     transform="matrix(1.3436526,0,0,1.3436526,-221.32243,-540.21015)"><path
       d="m 184.077,420.464 c -1.604,0.245 -2.531,1.228 -2.531,2.663 0,1.51 0.927,2.475 2.554,2.682 0.249,0.037 0.55,0.057 0.942,0.057 l 3.834,0 0,7.499 c -1.341,0.305 -3.096,0.455 -5.228,0.455 -3.443,0 -6.275,-0.945 -8.429,-2.817 -2.456,-2.15 -3.646,-5.193 -3.646,-9.31 0,-3.912 1.303,-6.781 4.007,-8.823 2.396,-1.851 5.649,-2.795 9.612,-2.795 2.953,0 5.446,0.339 7.405,1.038 l 0.723,0.247 0.339,-0.68 c 1.266,-2.512 1.544,-3.135 1.642,-3.401 l 0.301,-0.887 -0.889,-0.247 c -3.156,-0.849 -6.456,-1.284 -9.823,-1.284 -2.042,0 -3.887,0.15 -5.477,0.435 -4.06,0.736 -7.442,2.399 -10.109,4.968 -3.036,3.042 -4.587,6.951 -4.587,11.599 0,5.612 1.868,10.011 5.552,13.092 3.33,2.738 7.729,4.117 13.077,4.117 5.024,0 8.972,-0.758 11.744,-2.286 l 0.459,-0.245 0,-16.094 -10.508,0 c -0.339,-0.002 -0.655,-0.002 -0.964,0.017 z"
       id="path5"
       inkscape:connector-curvature="0" /><path
       d="m 228.89,409.639 c -2.855,-3.229 -7.013,-4.874 -12.339,-4.874 -5.311,0 -9.521,1.663 -12.467,4.968 -2.757,3.061 -4.173,7.198 -4.173,12.26 0,5.081 1.416,9.239 4.173,12.297 2.945,3.308 7.156,4.968 12.467,4.968 5.311,0 9.446,-1.66 12.339,-4.968 2.659,-3.039 4,-7.179 4,-12.297 0,-5.194 -1.341,-9.331 -4,-12.354 z m -12.188,24.407 c -3.307,0 -5.74,-1.097 -7.442,-3.383 -1.582,-2.098 -2.38,-5.005 -2.38,-8.67 0,-3.796 0.761,-6.744 2.267,-8.765 1.643,-2.192 4.023,-3.248 7.254,-3.248 3.269,0 5.649,1.075 7.254,3.324 1.514,2.077 2.282,5.005 2.282,8.689 0,8.106 -3.021,12.053 -9.235,12.053 z"
       id="path7"
       inkscape:connector-curvature="0" /><path
       d="m 257.055,433.119 c -0.286,-0.019 -0.61,-0.038 -0.949,-0.038 l -10.614,0 0,-27.617 -6.764,0 0,33.059 17.378,0 c 0.377,0 0.686,-0.037 0.949,-0.056 1.62,-0.211 2.546,-1.172 2.546,-2.648 0,-1.509 -0.927,-2.493 -2.546,-2.7 z"
       id="path9"
       inkscape:connector-curvature="0" /><path
       d="m 283.081,410.905 0,-5.44 -21.438,0 0,29.998 c 0,0.433 0.022,0.757 0.061,1.039 0.128,0.965 0.73,2.569 3.299,2.569 2.614,0 3.216,-1.604 3.344,-2.569 0.038,-0.264 0.061,-0.606 0.061,-1.039 l 0,-10.863 10.877,0 c 0.414,0 0.723,-0.019 0.964,-0.057 1.589,-0.245 2.494,-1.209 2.494,-2.682 0,-1.454 -0.904,-2.399 -2.494,-2.644 -0.241,-0.038 -0.565,-0.057 -0.964,-0.057 l -10.877,0 0,-8.256 14.673,0 z"
       id="path11"
       inkscape:connector-curvature="0" /><path
       d="m 294.681,405.389 0,5.421 9.996,0 0,24.576 c 0,0.433 0.016,0.775 0.053,1.039 0.136,0.945 0.716,2.568 3.292,2.568 2.606,0 3.209,-1.604 3.359,-2.587 0.016,-0.264 0.038,-0.625 0.038,-1.021 l 0,-24.576 9.988,0 0,-5.421 -26.726,0 z"
       id="path13"
       inkscape:connector-curvature="0" /><g
       id="g15"><path
         d="m 327.343,407.939 c 0.701,0.585 1.59,0.908 2.622,0.908 1.039,0 1.928,-0.322 2.629,-0.908 0.753,-0.642 1.137,-1.473 1.137,-2.494 0,-0.962 -0.398,-1.813 -1.114,-2.456 -0.724,-0.624 -1.612,-0.943 -2.651,-0.943 -1.018,0 -1.884,0.301 -2.584,0.906 -0.776,0.624 -1.175,1.493 -1.175,2.493 -10e-4,1.021 0.383,1.852 1.136,2.494 z"
         id="path17"
         inkscape:connector-curvature="0" /><path
         d="m 326.604,435.594 c 0,0.32 0.023,0.625 0.076,0.982 0.15,0.927 0.775,2.494 3.284,2.494 2.554,0 3.156,-1.586 3.292,-2.531 0.053,-0.264 0.053,-0.546 0.053,-0.945 l 0,-22.649 -6.705,0 0,22.649 z"
         id="path19"
         inkscape:connector-curvature="0" /></g><path
       d="m 358.152,420.464 c -1.604,0.245 -2.531,1.209 -2.531,2.663 0,1.51 0.927,2.475 2.554,2.682 0.241,0.037 0.542,0.057 0.957,0.057 l 3.834,0 0,7.499 c -1.356,0.305 -3.111,0.455 -5.228,0.455 -3.442,0 -6.275,-0.945 -8.43,-2.817 -2.433,-2.112 -3.661,-5.25 -3.661,-9.31 0,-3.912 1.318,-6.781 4.022,-8.823 2.403,-1.851 5.627,-2.795 9.598,-2.795 2.968,0 5.461,0.339 7.419,1.038 l 0.701,0.247 0.339,-0.68 c 1.266,-2.475 1.552,-3.135 1.649,-3.401 l 0.316,-0.887 -0.889,-0.247 c -3.172,-0.849 -6.479,-1.284 -9.823,-1.284 -2.056,0 -3.887,0.15 -5.491,0.435 -4.045,0.736 -7.442,2.399 -10.094,4.968 -3.059,3.042 -4.603,6.951 -4.603,11.599 0,5.612 1.868,10.011 5.552,13.092 3.345,2.738 7.743,4.117 13.092,4.117 5.024,0 8.972,-0.758 11.751,-2.286 l 0.43,-0.245 0,-16.094 -10.485,0 c -0.354,-0.002 -0.654,-0.002 -0.979,0.017 z"
       id="path21"
       inkscape:connector-curvature="0" /><path
       d="m 395.929,433.119 c -0.24,-0.019 -0.564,-0.038 -0.994,-0.038 l -12.437,0 0,-8.877 11.036,0 c 0.414,0 0.737,-0.019 1.001,-0.057 1.567,-0.207 2.456,-1.19 2.456,-2.684 0,-0.812 -0.324,-2.247 -2.456,-2.644 -0.248,-0.038 -0.564,-0.056 -1.001,-0.056 l -11.036,0 0,-7.859 15.586,0 0,-5.44 -22.343,0 0,33.059 19.193,0 c 0.415,0 0.73,-0.037 0.994,-0.056 1.59,-0.211 2.517,-1.19 2.517,-2.686 0,-1.453 -0.904,-2.417 -2.516,-2.662 z"
       id="path23"
       inkscape:connector-curvature="0" /><path
       d="m 429.503,433.819 -9.243,-9.37 c 6.29,-1.097 9.484,-4.307 9.484,-9.558 0,-3.855 -1.732,-6.556 -5.213,-8.049 -2.17,-0.925 -5.438,-1.378 -9.974,-1.378 l -10.448,0 0,29.998 c 0,0.452 0.023,0.795 0.061,1.039 0.128,0.965 0.738,2.531 3.247,2.531 2.568,0 3.171,-1.586 3.284,-2.531 0.06,-0.244 0.083,-0.587 0.083,-1.039 l 0,-24.783 4.866,0 c 1.853,0 3.367,0.226 4.497,0.643 2.041,0.774 2.99,2.058 2.99,3.966 0,1.851 -0.724,3.098 -2.229,3.893 -1.251,0.661 -2.953,1 -5.1,1 -1.04,0 -1.703,0 -2.042,0.038 -2.268,0.284 -2.516,1.794 -2.516,2.439 0,0.716 0.301,1.397 0.874,2 l 12.143,13.224 c 0.7,0.775 1.566,1.152 2.568,1.152 0.965,0 1.793,-0.264 2.479,-0.775 0.753,-0.565 1.13,-1.379 1.13,-2.302 0,-0.797 -0.324,-1.516 -0.941,-2.138 z"
       id="path25"
       inkscape:connector-curvature="0" /></g></svg>