<?xml version="1.0" encoding="UTF-8" standalone="no"?>
<!-- Generator: Adobe Illustrator 16.0.0, SVG Export Plug-In . SVG Version: 6.00 Build 0)  -->

<svg
   xmlns:dc="http://purl.org/dc/elements/1.1/"
   xmlns:cc="http://creativecommons.org/ns#"
   xmlns:rdf="http://www.w3.org/1999/02/22-rdf-syntax-ns#"
   xmlns:svg="http://www.w3.org/2000/svg"
   xmlns="http://www.w3.org/2000/svg"
   xmlns:sodipodi="http://sodipodi.sourceforge.net/DTD/sodipodi-0.dtd"
   xmlns:inkscape="http://www.inkscape.org/namespaces/inkscape"
   version="1.1"
   id="레이어_1"
   x="0px"
   y="0px"
   width="268.02786"
   height="37.895168"
   viewBox="0 0 268.02785 37.895167"
   enable-background="new 0 0 595.28 841.89"
   xml:space="preserve"
   inkscape:version="0.91 r13725"
   sodipodi:docname="griptech_logo.svg"><metadata
     id="metadata25"><rdf:RDF><cc:Work
         rdf:about=""><dc:format>image/svg+xml</dc:format><dc:type
           rdf:resource="http://purl.org/dc/dcmitype/StillImage" /><dc:title></dc:title></cc:Work></rdf:RDF></metadata><defs
     id="defs23" /><sodipodi:namedview
     pagecolor="#ffffff"
     bordercolor="#666666"
     borderopacity="1"
     objecttolerance="10"
     gridtolerance="10"
     guidetolerance="10"
     inkscape:pageopacity="0"
     inkscape:pageshadow="2"
     inkscape:window-width="954"
     inkscape:window-height="635"
     id="namedview21"
     showgrid="false"
     fit-margin-top="0"
     fit-margin-left="0"
     fit-margin-right="0"
     fit-margin-bottom="0"
     inkscape:zoom="0.28032165"
     inkscape:cx="-309.84803"
     inkscape:cy="9.7825753"
     inkscape:window-x="2246"
     inkscape:window-y="223"
     inkscape:window-maximized="0"
     inkscape:current-layer="레이어_1" /><g
     id="g3"
     transform="matrix(1.2080837,0,0,1.2080837,-225.34264,-489.77163)"
     inkscape:export-xdpi="47.299999"
     inkscape:export-ydpi="47.299999"><path
       d="m 244.486,435.053 c 0,0.943 -0.593,1.408 -1.743,1.408 0,0 -4.346,-0.465 -4.346,-1.408 l 0,-5.416 c 0,-1.517 -0.641,-2.881 -1.902,-4.047 -1.261,-1.166 -2.94,-1.754 -5.05,-1.754 l -5.209,0 c -1.167,0 -1.741,0.479 -1.741,1.404 l 0,9.813 c 0,0.943 -0.575,1.408 -1.741,1.408 l -2.605,0 c -1.151,0 -1.727,-0.465 -1.727,-1.408 l 0,-18.345 c 0,-2.796 1.198,-5.225 3.627,-7.271 2.413,-2.045 5.543,-3.051 9.396,-3.051 3.836,0 6.984,0.798 9.396,2.412 2.428,1.63 3.645,3.82 3.645,6.632 0,1.582 -0.446,2.892 -1.357,3.948 -0.465,0.559 -1.198,1.15 -2.205,1.789 -0.322,0.207 -0.481,0.432 -0.481,0.639 0,0.256 0.159,0.48 0.481,0.687 1.103,0.783 1.915,1.613 2.44,2.493 0.739,1.229 1.122,2.797 1.122,4.651 l 0,5.416 z m -6.088,-19.623 c 0,-1.454 -0.672,-2.557 -2.014,-3.34 -1.341,-0.798 -2.989,-1.182 -4.938,-1.182 -2.157,0 -3.852,0.575 -5.098,1.711 -1.23,1.15 -1.853,2.507 -1.853,4.089 l 0,1.534 c 0,0.927 0.575,1.391 1.741,1.391 l 5.209,0 c 1.52,0 2.925,-0.255 4.187,-0.766 1.839,-0.753 2.766,-1.903 2.766,-3.437"
       id="path5"
       inkscape:connector-curvature="0" /><path
       d="m 289.133,416.708 c 0,2.797 -1.214,5.227 -3.642,7.272 -2.415,2.031 -5.563,3.051 -9.399,3.051 -1.791,0 -3.677,-0.338 -5.688,-1.02 -0.832,-0.293 -1.265,-0.096 -1.265,0.573 l 0,8.469 c 0,0.943 -4.327,1.408 -4.327,1.408 -1.166,0 -1.746,-0.465 -1.746,-1.408 l 0,-18.345 c 0,-2.796 1.201,-5.225 3.629,-7.271 2.431,-2.045 5.56,-3.051 9.396,-3.051 3.836,0 6.984,0.989 9.399,2.987 2.429,1.998 3.643,4.443 3.643,7.335 m -6.089,0 c 0,-1.534 -0.624,-2.875 -1.886,-4.042 -1.278,-1.184 -2.957,-1.759 -5.066,-1.759 -2.157,0 -3.849,0.575 -5.098,1.711 -1.23,1.15 -1.854,2.507 -1.854,4.089 0,1.534 0.641,2.877 1.905,4.043 1.262,1.184 2.938,1.742 5.047,1.742 2.16,0 3.868,-0.558 5.098,-1.71 1.23,-1.15 1.854,-2.509 1.854,-4.074"
       id="path7"
       inkscape:connector-curvature="0" /><path
       d="m 376.141,430.465 c -1.149,1.842 -2.746,3.23 -4.778,4.206 -2.026,0.975 -4.33,1.465 -6.921,1.465 -3.832,0 -6.965,-0.987 -9.393,-2.981 -2.415,-2.001 -3.629,-4.448 -3.629,-7.335 l 0,-10.07 c 0,-2.797 1.214,-5.227 3.629,-7.254 2.428,-2.062 5.561,-3.084 9.393,-3.084 3.374,0 6.188,0.782 8.456,2.316 1.373,0.927 2.396,1.998 3.084,3.244 0.159,0.256 0.239,0.527 0.239,0.815 0,0.511 -0.239,0.879 -0.717,1.103 l -1.887,1.07 c -0.433,0.207 -0.803,0.32 -1.102,0.32 -0.481,0 -0.911,-0.209 -1.281,-0.639 -0.892,-1.104 -1.549,-1.823 -1.963,-2.159 -1.328,-1.039 -2.925,-1.534 -4.83,-1.534 -2.153,0 -3.849,0.575 -5.098,1.727 -1.229,1.134 -1.835,2.491 -1.835,4.075 l 0,10.069 c 0,1.529 0.625,2.874 1.886,4.04 1.278,1.166 2.957,1.759 5.047,1.759 1.905,0 3.486,-0.465 4.748,-1.408 0.159,-0.127 0.847,-0.848 2.045,-2.153 0.478,-0.517 0.943,-0.771 1.421,-0.771 0.386,0 0.688,0.083 0.962,0.255 l 1.804,1.007 c 0.641,0.401 0.943,0.803 0.943,1.229 0,0.21 -0.08,0.433 -0.223,0.688"
       id="path9"
       inkscape:connector-curvature="0" /><path
       d="m 408.391,434.734 c 0,0.943 -4.353,1.401 -4.353,1.401 -1.146,0 -1.739,-0.458 -1.739,-1.401 l 0,-9.794 c 0,-0.944 -0.574,-1.426 -1.728,-1.426 l -10.431,0 c -1.166,0 -1.727,0.481 -1.727,1.426 l 0,9.794 c 0,0.943 -0.574,1.401 -1.74,1.401 0,0 -4.352,-0.458 -4.352,-1.401 l 0,-26.639 c 0,-0.927 4.352,-1.391 4.352,-1.391 1.166,0 1.74,0.463 1.74,1.391 l 0,9.827 c 0,0.927 0.561,1.389 1.727,1.389 l 10.431,0 c 1.153,0 1.728,-0.462 1.728,-1.389 l 0,-9.827 c 0,-0.927 0.593,-1.391 1.739,-1.391 0,0 4.353,0.463 4.353,1.391 l 0,26.639 z"
       id="path11"
       inkscape:connector-curvature="0" /><path
       d="m 256.695,435.391 c 0,0.924 -0.577,1.389 -1.743,1.389 l -2.59,0 c -1.166,0 -1.74,-0.465 -1.74,-1.389 l 0,-26.656 c 0,-0.927 0.574,-1.391 1.74,-1.391 l 2.59,0 c 1.166,0 1.743,0.463 1.743,1.391 l 0,26.656 z"
       id="path13"
       inkscape:connector-curvature="0" /><path
       d="m 212.591,426.457 c 0,2.797 -1.198,5.225 -3.627,7.251 -2.414,2.046 -5.562,3.071 -9.396,3.071 -3.852,0 -6.983,-0.994 -9.396,-2.988 -2.429,-2.001 -3.643,-4.441 -3.643,-7.334 l 0,-10.068 c 0,-2.813 1.214,-5.225 3.643,-7.271 2.412,-2.029 5.544,-3.052 9.396,-3.052 3.371,0 6.185,0.766 8.453,2.285 1.359,0.943 2.382,2.029 3.068,3.261 0.159,0.255 0.239,0.527 0.239,0.814 0,0.527 -0.239,0.879 -0.718,1.103 l -1.886,1.07 c -0.414,0.225 -0.782,0.336 -1.102,0.336 -0.479,0 -2.348,-2.43 -2.732,-2.812 -2.236,-2.254 -8.086,-2.158 -10.418,0.175 -1.182,1.198 -1.854,2.525 -1.854,4.091 l 0,10.068 c 0,1.535 0.625,2.874 1.902,4.04 1.246,1.185 2.941,1.759 5.05,1.759 2.157,0 3.851,-0.574 5.098,-1.728 1.229,-1.134 1.853,-2.491 1.853,-4.071 l 0,-1.517 c 0,-0.944 -0.575,-1.426 -1.741,-1.426 l -3.468,0 c -1.741,-1.869 -1.741,-2.796 -1.741,-2.796 0,-0.927 0.575,-1.407 1.741,-1.407 l 9.557,0 c 1.15,0 1.726,0.479 1.726,1.407 l 0,5.739 z"
       id="path15"
       inkscape:connector-curvature="0" /><path
       d="m 317.081,411.546 -6.554,0 c -1.166,0 -1.74,0.464 -1.74,1.407 l 0,22.438 c 0,0.924 -0.592,1.389 -1.758,1.389 l -2.575,0 c -1.166,0 -1.755,-0.465 -1.755,-1.389 l 0,-22.438 c 0,-0.943 -0.577,-1.407 -1.743,-1.407 l -6.535,0 c -1.166,0 -1.743,-2.812 -1.743,-2.812 0,-0.927 0.577,-1.391 1.743,-1.391 l 22.643,0 c 1.167,0 1.74,0.463 1.74,1.391 0.001,0 -0.573,2.812 -1.723,2.812"
       id="path17"
       inkscape:connector-curvature="0" /><path
       d="m 344.918,431.108 c -1.153,1.816 -2.75,3.225 -4.764,4.199 -2.029,0.994 -4.346,1.472 -6.917,1.472 -3.855,0 -6.971,-0.994 -9.398,-2.988 -2.428,-2.001 -3.626,-4.441 -3.626,-7.334 l 0,-10.068 c 0,-2.813 1.198,-5.225 3.626,-7.271 2.428,-2.029 5.543,-3.052 9.398,-3.052 3.371,0 6.181,0.766 8.449,2.285 1.377,0.943 2.399,2.029 3.071,3.261 0.16,0.255 0.255,0.527 0.255,0.814 0,0.527 -0.255,0.879 -0.72,1.103 l -1.898,1.07 c -0.418,0.225 -0.784,0.336 -1.103,0.336 -0.481,0 -0.898,-0.223 -1.265,-0.655 -0.896,-1.086 -1.552,-1.823 -1.982,-2.157 -1.31,-1.022 -2.908,-1.534 -4.808,-1.534 -2.16,0 -3.855,0.575 -5.098,1.709 -1.229,1.15 -1.854,2.525 -1.854,4.091 l 0,1.534 c 0,0.927 0.593,1.389 1.74,1.389 l 8.054,0 c 1.166,0 1.743,0.479 1.743,1.407 0,0 -1.743,3.229 -1.743,2.796 l -8.054,0 c -1.147,0 -1.74,0.481 -1.74,1.426 l 0,1.517 c 0,1.535 0.638,2.874 1.899,4.04 1.265,1.185 2.943,1.759 5.053,1.759 1.899,0 3.467,-0.466 4.729,-1.408 0.175,-0.128 0.848,-0.842 2.062,-2.173 0.48,-0.491 0.959,-0.746 1.424,-0.746 0.363,0 0.685,0.076 0.943,0.255 l 1.819,1.02 c 0.64,0.37 0.942,0.784 0.942,1.198 0.001,0.208 -0.078,0.445 -0.237,0.705"
       id="path19"
       inkscape:connector-curvature="0" /></g></svg>