<?xml version="1.0" encoding="UTF-8" standalone="no"?>
<!-- Generator: Adobe Illustrator 16.0.0, SVG Export Plug-In . SVG Version: 6.00 Build 0)  -->

<svg
   xmlns:dc="http://purl.org/dc/elements/1.1/"
   xmlns:cc="http://creativecommons.org/ns#"
   xmlns:rdf="http://www.w3.org/1999/02/22-rdf-syntax-ns#"
   xmlns:svg="http://www.w3.org/2000/svg"
   xmlns="http://www.w3.org/2000/svg"
   xmlns:sodipodi="http://sodipodi.sourceforge.net/DTD/sodipodi-0.dtd"
   xmlns:inkscape="http://www.inkscape.org/namespaces/inkscape"
   version="1.1"
   id="레이어_1"
   x="0px"
   y="0px"
   width="129.69228"
   height="71.403984"
   viewBox="0 0 129.69227 71.403984"
   enable-background="new 0 0 595.28 841.89"
   xml:space="preserve"
   inkscape:version="0.91 r13725"
   sodipodi:docname="no1_logo.svg"><metadata
     id="metadata41"><rdf:RDF><cc:Work
         rdf:about=""><dc:format>image/svg+xml</dc:format><dc:type
           rdf:resource="http://purl.org/dc/dcmitype/StillImage" /><dc:title></dc:title></cc:Work></rdf:RDF></metadata><defs
     id="defs39" /><sodipodi:namedview
     pagecolor="#ffffff"
     bordercolor="#666666"
     borderopacity="1"
     objecttolerance="10"
     gridtolerance="10"
     guidetolerance="10"
     inkscape:pageopacity="0"
     inkscape:pageshadow="2"
     inkscape:window-width="1307"
     inkscape:window-height="666"
     id="namedview37"
     showgrid="false"
     fit-margin-top="0"
     fit-margin-left="0"
     fit-margin-right="0"
     fit-margin-bottom="0"
     inkscape:zoom="0.28032165"
     inkscape:cx="-378.08604"
     inkscape:cy="87.731987"
     inkscape:window-x="1999"
     inkscape:window-y="163"
     inkscape:window-maximized="0"
     inkscape:current-layer="레이어_1" /><g
     id="g3"
     transform="matrix(0.46437085,0,0,0.46437085,-73.501083,-159.84109)"
     inkscape:export-xdpi="47.299999"
     inkscape:export-ydpi="47.299999"><g
       id="g5"><path
         d="m 261.952,398.854 c 0,28.634 -23.211,51.82 -51.86,51.82 -28.6,0 -51.811,-23.187 -51.811,-51.82 0,-28.64 23.211,-51.854 51.811,-51.854 28.649,0 51.86,23.214 51.86,51.854 z"
         id="path7"
         inkscape:connector-curvature="0"
         style="fill:#e60012" /><path
         d="m 348.356,398.854 c 0,28.634 -23.211,51.82 -51.848,51.82 -28.637,0 -51.848,-23.187 -51.848,-51.82 0,-28.64 23.211,-51.854 51.848,-51.854 28.638,0 51.848,23.214 51.848,51.854 z"
         id="path9"
         inkscape:connector-curvature="0"
         style="fill:#e60012" /><path
         d="m 382.914,453.468 c -30.12,0 -54.642,-24.484 -54.642,-54.613 0,-30.126 24.521,-54.645 54.642,-54.645 30.132,0 54.653,24.518 54.653,54.645 0,30.128 -24.521,54.613 -54.653,54.613 z m 0,-103.678 c -27.055,0 -49.055,22.006 -49.055,49.064 0,27.023 22,49.026 49.055,49.026 27.067,0 49.066,-22.003 49.066,-49.026 0,-27.058 -21.999,-49.064 -49.066,-49.064 z"
         id="path11"
         inkscape:connector-curvature="0"
         style="fill:#e60012" /></g><path
       d="m 184.408,433.285 0,-71.719 45.187,53.869 0.148,0 0,-52.939 6.477,0 0,73.668 -45.125,-53.646 -0.148,0 0,50.767 -6.539,0 z"
       id="path13"
       inkscape:connector-curvature="0"
       style="fill:#ffffff" /><path
       d="m 259.628,398.388 c 0,-5.237 0.927,-10.135 2.756,-14.692 1.854,-4.554 4.338,-8.429 7.403,-11.683 3.041,-3.223 6.476,-5.797 10.295,-7.688 5.117,-2.667 10.53,-3.968 16.117,-3.968 5.241,0 10.135,1.085 14.696,3.223 4.523,2.139 8.33,4.836 11.37,8.059 3.041,3.257 5.389,6.727 7.033,10.478 2.323,4.99 3.497,10.29 3.497,15.901 0,5.361 -0.988,10.286 -2.941,14.785 -1.953,4.524 -4.462,8.306 -7.502,11.433 -3.065,3.13 -6.378,5.614 -10.036,7.53 -5.142,2.607 -10.506,3.905 -16.154,3.905 -5.29,0 -10.407,-1.174 -15.301,-3.535 -4.029,-1.977 -7.564,-4.548 -10.604,-7.709 -3.041,-3.164 -5.389,-6.544 -7.07,-10.171 -2.348,-5.112 -3.559,-10.384 -3.559,-15.868 z m 6.934,0 c 0,4.431 0.939,8.741 2.831,12.925 1.359,3.034 3.312,5.89 5.759,8.522 2.484,2.639 5.525,4.838 9.146,6.606 3.597,1.765 7.564,2.63 11.902,2.63 5.08,0 10.011,-1.396 14.72,-4.15 4.746,-2.762 8.404,-6.605 11,-11.469 2.633,-4.833 3.942,-9.98 3.942,-15.372 0,-3.38 -0.531,-6.696 -1.619,-9.98 -1.051,-3.254 -2.509,-6.137 -4.362,-8.618 -1.83,-2.509 -3.906,-4.678 -6.205,-6.477 -2.286,-1.798 -4.932,-3.257 -7.935,-4.372 -3.003,-1.146 -6.167,-1.703 -9.542,-1.703 -4.462,0 -8.676,1.023 -12.706,3.099 -3.102,1.548 -5.957,3.686 -8.528,6.415 -2.571,2.729 -4.623,5.982 -6.13,9.826 -1.52,3.812 -2.273,7.872 -2.273,12.118 z"
       id="path15"
       inkscape:connector-curvature="0"
       style="fill:#ffffff" /><path
       d="m 382.42,434.372 0,-66.142 -11.841,0 1.953,-6.634 16.833,0 0,72.775 -6.945,0 z"
       id="path17"
       inkscape:connector-curvature="0"
       style="fill:#e60012" /><g
       id="g19"><path
         d="m 227.704,473.576 4.029,0 12.421,19.565 0.062,0 0,-19.565 3.078,0 0,23.805 -3.906,0 -12.557,-19.553 -0.086,0 0,19.553 -3.041,0 0,-23.805 z"
         id="path21"
         inkscape:connector-curvature="0"
         style="fill:#e60012" /><path
         d="m 261.89,497.975 c -1.743,0 -3.312,-0.31 -4.771,-0.965 -1.458,-0.617 -2.67,-1.52 -3.72,-2.632 -1.026,-1.112 -1.829,-2.423 -2.422,-3.968 -0.593,-1.521 -0.865,-3.164 -0.865,-4.932 0,-1.768 0.272,-3.411 0.865,-4.932 0.593,-1.545 1.396,-2.879 2.422,-3.967 1.05,-1.137 2.262,-2.015 3.72,-2.633 1.458,-0.643 3.028,-0.951 4.771,-0.951 1.73,0 3.313,0.309 4.746,0.951 1.446,0.618 2.694,1.496 3.708,2.633 1.063,1.088 1.866,2.422 2.459,3.967 0.581,1.521 0.865,3.164 0.865,4.932 0,1.768 -0.284,3.411 -0.865,4.932 -0.593,1.545 -1.396,2.855 -2.459,3.968 -1.014,1.112 -2.262,2.015 -3.708,2.632 -1.434,0.655 -3.016,0.965 -4.746,0.965 z m 0,-3.004 c 1.298,0 2.447,-0.26 3.498,-0.778 1.05,-0.494 1.953,-1.175 2.694,-2.015 0.754,-0.865 1.31,-1.866 1.706,-3.004 0.408,-1.187 0.618,-2.385 0.618,-3.695 0,-1.298 -0.21,-2.533 -0.618,-3.683 -0.396,-1.149 -0.952,-2.139 -1.706,-3.004 -0.742,-0.877 -1.644,-1.52 -2.694,-2.052 -1.051,-0.494 -2.2,-0.741 -3.498,-0.741 -1.297,0 -2.484,0.247 -3.535,0.741 -1.026,0.532 -1.928,1.175 -2.669,2.052 -0.742,0.865 -1.335,1.854 -1.73,3.004 -0.408,1.149 -0.593,2.385 -0.593,3.683 0,1.311 0.186,2.509 0.593,3.695 0.396,1.138 0.989,2.139 1.73,3.004 0.741,0.84 1.644,1.521 2.669,2.015 1.051,0.518 2.237,0.778 3.535,0.778 z"
         id="path23"
         inkscape:connector-curvature="0"
         style="fill:#e60012" /><path
         d="m 281.937,497.381 0,-22.618 -4.054,0 0,-2.273 6.415,0 0,24.892 -2.361,0 z"
         id="path25"
         inkscape:connector-curvature="0"
         style="fill:#e60012" /><path
         d="m 298.647,490.657 -7.873,0 0,-2.817 7.873,0 0,2.817 z"
         id="path27"
         inkscape:connector-curvature="0"
         style="fill:#e60012" /><path
         d="m 320.313,484.058 0,11.741 c -0.557,0.346 -1.175,0.655 -1.892,0.927 -0.68,0.26 -1.421,0.507 -2.175,0.717 -0.767,0.161 -1.521,0.31 -2.287,0.408 -0.778,0.087 -1.52,0.124 -2.199,0.124 -1.929,0 -3.634,-0.347 -5.117,-0.989 -1.521,-0.692 -2.756,-1.619 -3.807,-2.731 -1.026,-1.149 -1.829,-2.484 -2.36,-4.004 -0.532,-1.483 -0.804,-3.091 -0.804,-4.771 0,-1.768 0.271,-3.411 0.865,-4.932 0.593,-1.545 1.396,-2.879 2.422,-3.967 1.051,-1.137 2.262,-2.015 3.708,-2.633 1.459,-0.643 3.041,-0.951 4.783,-0.951 2.076,0 3.782,0.247 5.104,0.803 1.311,0.557 2.423,1.298 3.325,2.262 l -2.176,2.447 c -0.927,-0.927 -1.916,-1.582 -2.979,-1.952 -1.051,-0.371 -2.139,-0.557 -3.275,-0.557 -1.31,0 -2.484,0.247 -3.535,0.741 -1.025,0.532 -1.928,1.175 -2.669,2.052 -0.742,0.865 -1.335,1.854 -1.73,3.004 -0.408,1.149 -0.594,2.385 -0.594,3.683 0,1.335 0.223,2.608 0.655,3.758 0.457,1.137 1.075,2.138 1.854,2.966 0.778,0.878 1.705,1.558 2.793,2.015 1.051,0.494 2.225,0.754 3.473,0.754 1.075,0 2.102,-0.123 3.103,-0.321 0.951,-0.247 1.755,-0.519 2.447,-0.927 l 0,-6.625 -4.993,0 0,-3.04 8.06,0 z"
         id="path29"
         inkscape:connector-curvature="0"
         style="fill:#e60012" /><path
         d="m 324.305,473.576 7.973,0 c 1.421,0 2.632,0.223 3.56,0.618 0.927,0.408 1.681,0.939 2.236,1.582 0.52,0.655 0.902,1.372 1.112,2.139 0.223,0.815 0.347,1.582 0.347,2.323 0,0.754 -0.161,1.495 -0.408,2.2 -0.247,0.692 -0.618,1.335 -1.088,1.928 -0.494,0.557 -1.075,1.026 -1.767,1.422 -0.705,0.407 -1.459,0.617 -2.324,0.717 l 6.415,10.876 -3.807,0 -5.772,-10.506 -3.398,0 0,10.506 -3.078,0 0,-23.805 z m 3.078,10.482 4.029,0 c 0.581,0 1.174,-0.037 1.768,-0.124 0.58,-0.123 1.112,-0.309 1.545,-0.556 0.47,-0.284 0.84,-0.692 1.112,-1.187 0.284,-0.495 0.407,-1.138 0.407,-1.953 0,-0.804 -0.123,-1.446 -0.407,-1.978 -0.272,-0.494 -0.643,-0.865 -1.112,-1.149 -0.433,-0.271 -0.965,-0.47 -1.545,-0.556 -0.594,-0.1 -1.187,-0.161 -1.768,-0.161 l -4.029,0 0,7.664 z"
         id="path31"
         inkscape:connector-curvature="0"
         style="fill:#e60012" /><path
         d="m 342.227,473.576 3.065,0 0,23.805 -3.065,0 0,-23.805 z"
         id="path33"
         inkscape:connector-curvature="0"
         style="fill:#e60012" /><path
         d="m 349.506,473.576 7.936,0 c 1.458,0 2.632,0.223 3.596,0.618 0.928,0.408 1.669,0.939 2.2,1.582 0.557,0.655 0.927,1.372 1.149,2.139 0.21,0.815 0.31,1.582 0.31,2.323 0,0.754 -0.1,1.495 -0.31,2.299 -0.223,0.804 -0.593,1.521 -1.149,2.139 -0.531,0.654 -1.272,1.174 -2.2,1.582 -0.964,0.433 -2.138,0.617 -3.596,0.617 l -4.87,0 0,10.506 -3.065,0 0,-23.805 z m 3.065,10.482 4.005,0 c 0.617,0 1.211,-0.037 1.792,-0.124 0.593,-0.123 1.087,-0.309 1.557,-0.556 0.458,-0.284 0.828,-0.692 1.112,-1.187 0.248,-0.495 0.408,-1.138 0.408,-1.953 0,-0.804 -0.16,-1.446 -0.408,-1.978 -0.284,-0.494 -0.654,-0.865 -1.112,-1.149 -0.47,-0.271 -0.964,-0.47 -1.557,-0.556 -0.581,-0.1 -1.175,-0.161 -1.792,-0.161 l -4.005,0 0,7.664 z"
         id="path35"
         inkscape:connector-curvature="0"
         style="fill:#e60012" /></g></g></svg>