<?xml version="1.0" encoding="UTF-8" standalone="no"?>
<!-- Generator: Adobe Illustrator 16.0.0, SVG Export Plug-In . SVG Version: 6.00 Build 0)  -->

<svg
   xmlns:dc="http://purl.org/dc/elements/1.1/"
   xmlns:cc="http://creativecommons.org/ns#"
   xmlns:rdf="http://www.w3.org/1999/02/22-rdf-syntax-ns#"
   xmlns:svg="http://www.w3.org/2000/svg"
   xmlns="http://www.w3.org/2000/svg"
   xmlns:sodipodi="http://sodipodi.sourceforge.net/DTD/sodipodi-0.dtd"
   xmlns:inkscape="http://www.inkscape.org/namespaces/inkscape"
   version="1.1"
   id="레이어_1"
   x="0px"
   y="0px"
   width="160.10408"
   height="50"
   viewBox="0 0 160.10407 49.999999"
   enable-background="new 0 0 595.28 841.89"
   xml:space="preserve"
   inkscape:version="0.91 r13725"
   sodipodi:docname="superstroke_logo.svg"><metadata
     id="metadata41"><rdf:RDF><cc:Work
         rdf:about=""><dc:format>image/svg+xml</dc:format><dc:type
           rdf:resource="http://purl.org/dc/dcmitype/StillImage" /><dc:title></dc:title></cc:Work></rdf:RDF></metadata><defs
     id="defs39" /><sodipodi:namedview
     pagecolor="#ffffff"
     bordercolor="#666666"
     borderopacity="1"
     objecttolerance="10"
     gridtolerance="10"
     guidetolerance="10"
     inkscape:pageopacity="0"
     inkscape:pageshadow="2"
     inkscape:window-width="965"
     inkscape:window-height="492"
     id="namedview37"
     showgrid="false"
     fit-margin-top="0"
     fit-margin-left="0"
     fit-margin-right="0"
     fit-margin-bottom="0"
     inkscape:zoom="1.1212866"
     inkscape:cx="162.41635"
     inkscape:cy="-36.049944"
     inkscape:window-x="2181"
     inkscape:window-y="191"
     inkscape:window-maximized="0"
     inkscape:current-layer="레이어_1" /><g
     id="g3"
     transform="matrix(0.513623,0,0,0.513623,-75.347392,-160.28936)"><g
       id="g5"><path
         d="m 260.076,335.801 c 0,3.492 2.999,7.685 5.352,10.043 5.783,5.795 14.694,8.503 22.495,10.283 2.167,0.496 12.381,1.592 13.187,1.339 3.805,-1.194 13.903,-5.58 13.903,-9.312 0,-5.931 -22.184,-7.322 -27.561,-8.131 -4.861,-0.733 -13.222,-3.106 -13.222,-8.939 0,-4.991 15.189,-12.076 20.146,-14.053 3.165,-1.262 12.857,-4.506 15.981,-4.506 l 0,-0.063 c -4.996,-0.34 -8.571,-0.57 -13.718,-0.188 -13.138,0.985 -36.563,6.858 -36.563,23.527 z"
         id="path7"
         inkscape:connector-curvature="0"
         style="clip-rule:evenodd;fill:#1a96d5;fill-rule:evenodd" /><path
         d="m 304.524,357.467 c 12.962,0 34.575,-4.433 39.782,-18.322 2.317,-6.183 -1.187,-12.807 -6.054,-16.652 -4.525,-3.582 -7.52,-4.904 -11.505,-6.368 0,5.079 -5.537,8.258 -9.923,9.325 -1.652,0.4 -4.23,-0.063 -4.23,-2 0,-2.438 3.89,-3.973 3.089,-5.943 -1.867,-4.591 -21.488,8.296 -23.491,12.108 -4.125,7.835 11.996,5.317 23.571,9.84 13.138,5.129 2.759,13.228 -6.063,16.234 l -5.176,1.778 z"
         id="path9"
         inkscape:connector-curvature="0"
         style="clip-rule:evenodd;fill-rule:evenodd" /></g><path
       d="m 339.074,356.458 0,-2.664 -1.001,0 0,-0.358 2.398,0 0,0.358 -1.002,0 0,2.664 -0.395,0 0,0 z m 1.793,0 0,-3.021 0.601,0 0.721,2.14 c 0.061,0.198 0.11,0.348 0.141,0.448 0.034,-0.11 0.09,-0.273 0.16,-0.486 l 0.726,-2.103 0.536,0 0,3.021 -0.381,0 0,-2.528 -0.881,2.528 -0.36,0 -0.871,-2.571 0,2.571 -0.392,0 z"
       id="path11"
       inkscape:connector-curvature="0" /></g><g
     id="g13"
     transform="matrix(0.513623,0,0,0.513623,-75.347392,-160.28936)"><path
       d="m 270.735,394.922 c -0.25,-0.481 -0.721,-0.716 -1.402,-0.716 l -5.858,0 -6.474,0 c -1.938,0 -2.878,-0.246 -3.209,-0.741 -0.286,-0.426 -0.15,-1.146 0.145,-2.123 l 9.538,0 10.093,0 c 0.511,0 0.941,-0.186 1.302,-0.565 l 0,0 c 0.311,-0.331 0.556,-0.812 0.721,-1.442 l 0.471,-1.752 0.711,-2.644 c 0.17,-0.631 0.25,-1.201 0.25,-1.723 0,-1.021 -0.311,-1.832 -0.836,-2.453 -0.04,-0.04 -0.081,-0.09 -0.125,-0.13 -0.511,-0.541 -1.196,-0.906 -1.993,-1.121 -0.591,-0.155 -1.236,-0.23 -1.922,-0.23 l -8.671,0 -3.835,0 c -1.877,0 -3.825,0.271 -5.487,1.171 -1.692,0.906 -3.064,2.443 -3.735,4.962 l -1.592,5.933 -0.21,0.791 c -0.546,2.043 -0.416,3.455 0.21,4.426 0.201,0.306 0.441,0.566 0.721,0.791 1.151,0.901 2.964,1.132 5.086,1.142 l 8.842,0 4.957,0 0,0 c 0.601,0 1.106,-0.155 1.507,-0.471 0.396,-0.32 0.676,-0.771 0.836,-1.372 0.199,-0.737 0.184,-1.313 -0.041,-1.733 z m -15.331,-9.513 c 0.161,-0.581 0.391,-1.021 0.972,-1.297 0.681,-0.325 1.822,-0.485 3.77,-0.485 l 0,0 0,-0.371 0.005,0.371 0.35,-0.011 0.932,-0.01 2.042,-0.02 c 1.677,-0.016 3.424,-0.03 3.695,-0.03 2.644,0 3.955,0.15 4.531,0.455 0.345,0.181 0.275,0.531 0.155,1.007 l -0.51,1.902 -7.871,0 -8.471,0 0.4,-1.511 z"
       id="path15"
       inkscape:connector-curvature="0" /><path
       d="m 298.902,383.156 c 0.23,-0.181 0.42,-0.411 0.571,-0.691 0.109,-0.2 0.2,-0.42 0.266,-0.671 0.095,-0.36 0.145,-0.681 0.145,-0.961 l 0,0 c 0,-0.37 -0.08,-0.681 -0.25,-0.932 -0.051,-0.069 -0.1,-0.13 -0.16,-0.189 -0.16,-0.16 -0.371,-0.281 -0.621,-0.341 -0.17,-0.05 -0.355,-0.07 -0.561,-0.07 -0.2,0 -4,0 -7.64,0.01 -1.612,0 -2.874,0.011 -3.014,0.011 -3.164,0.12 -5.242,0.671 -6.668,1.662 -1.462,1.011 -2.218,2.448 -2.729,4.315 l -2.178,7.971 -0.851,3.114 0,0.005 c -0.175,0.646 -0.13,1.156 0.14,1.532 l 0,0 c 0.166,0.234 0.401,0.4 0.711,0.495 0.2,0.055 0.431,0.08 0.681,0.08 l 0,0 c 0.5,0 0.901,-0.01 1.202,-0.03 0.34,-0.02 0.59,-0.06 0.746,-0.109 l 0,0 c 0.381,-0.11 0.696,-0.321 0.952,-0.616 0.245,-0.285 0.425,-0.646 0.545,-1.092 l 2.964,-11.069 c 0.175,-0.646 0.471,-1.126 1.031,-1.441 0.621,-0.341 1.572,-0.511 3.034,-0.511 l 10.168,0 c 0.604,-10e-4 1.11,-0.161 1.516,-0.472 z"
       id="path17"
       inkscape:connector-curvature="0" /><path
       d="m 342.539,399.928 c 0.311,-1.382 0.08,-2.724 -0.48,-3.955 -0.646,-1.411 -1.732,-2.673 -2.944,-3.649 -1.302,-1.052 -2.849,-2.098 -4.485,-3.089 -1.902,-1.146 -3.94,-2.233 -5.873,-3.18 -0.115,-0.055 -0.341,-0.165 -0.656,-0.325 -0.22,-0.11 -0.43,-0.216 -0.631,-0.32 l -0.005,0 c -1.571,-0.801 -2.898,-1.542 -4.14,-2.373 -1.242,-0.831 -2.414,-1.763 -3.676,-2.935 -0.58,-0.54 -1.582,-1.571 -1.771,-2.773 -0.181,-1.182 0.431,-2.583 3.059,-3.965 1.487,-0.791 3.049,-1.462 4.671,-1.978 1.532,-0.485 3.124,-0.847 4.762,-1.036 4.801,-0.571 9.127,-0.941 11.175,-0.576 1.457,0.266 1.116,1.177 -2.443,3.229 -0.937,0.54 -1.537,1.041 -1.878,1.481 -0.275,0.351 -0.396,0.691 -0.396,1.002 0.005,0.335 0.141,0.625 0.386,0.86 0.21,0.211 0.501,0.371 0.841,0.491 0.486,0.175 1.087,0.26 1.713,0.26 0.61,0 1.251,-0.08 1.832,-0.25 1.377,-0.391 3.114,-0.961 4.687,-1.692 0.33,-0.155 0.66,-0.32 0.971,-0.485 1.873,-1.017 3.284,-2.298 3.215,-3.84 -0.08,-1.883 -1.753,-2.975 -4.186,-3.555 -2.634,-0.641 -6.153,-0.691 -9.513,-0.536 -2.554,0.115 -5.012,0.346 -6.895,0.516 l -0.135,0.016 c -2.474,0.229 -4.666,0.57 -6.804,1.041 -2.148,0.476 -4.251,1.076 -6.534,1.827 -2.162,0.711 -3.774,1.542 -4.931,2.453 -1.308,1.031 -2.048,2.163 -2.358,3.35 -0.351,1.347 -0.266,2.789 0.21,4.171 0.471,1.356 1.322,2.653 2.498,3.725 1.468,1.332 3.119,2.519 4.867,3.604 1.742,1.077 3.569,2.053 5.382,2.964 0.3,0.15 0.591,0.301 0.891,0.44 0.23,0.12 0.521,0.261 0.882,0.436 0.48,0.241 0.821,0.406 1.142,0.557 4.746,2.308 10.403,5.057 10.578,7.92 0.056,0.921 -0.605,1.763 -1.677,2.503 -1.392,0.951 -3.435,1.713 -5.553,2.253 -3.689,0.957 -7.795,1.522 -11.96,1.732 -4.416,0.226 -8.892,0.061 -12.998,-0.45 l -0.66,-0.085 c -0.211,-0.025 -0.431,-0.056 -0.682,-0.096 -1.191,-0.16 -2.092,0.131 -2.563,0.591 l -0.021,0.021 c -0.21,0.22 -0.341,0.471 -0.38,0.746 -0.03,0.275 0.029,0.556 0.199,0.82 0.056,0.086 0.121,0.166 0.201,0.246 0.43,0.436 1.217,0.791 2.423,0.911 3.385,0.325 6.368,0.455 9.152,0.471 2.778,0.015 5.337,-0.08 7.875,-0.211 2.644,-0.13 5.002,-0.37 7.365,-0.751 2.373,-0.391 4.735,-0.921 7.409,-1.637 2.203,-0.596 4.306,-1.582 5.913,-2.818 1.512,-1.173 2.599,-2.565 2.929,-4.077 z"
       id="path19"
       inkscape:connector-curvature="0" /><path
       d="m 249.066,385.198 c 0.44,-1.651 0.45,-2.964 -0.241,-3.96 -0.13,-0.19 -0.285,-0.37 -0.47,-0.535 -1.082,-0.977 -3.094,-1.462 -6.429,-1.462 l -7.119,0 -2.668,0 c -1.938,0 -3.855,0.104 -5.498,0.871 -1.677,0.791 -3.024,2.237 -3.73,4.906 l -2.924,10.965 -2.393,9.012 c -0.17,0.641 -0.125,1.141 0.14,1.512 l 0.005,0 c 0.275,0.375 0.736,0.561 1.387,0.561 l 0,0 c 0.33,0 0.621,0 0.861,-0.01 0.11,-0.005 0.21,-0.01 0.306,-0.021 0.315,-0.02 0.556,-0.055 0.716,-0.104 l 0,0 c 0.38,-0.115 0.706,-0.315 0.961,-0.616 0.25,-0.28 0.431,-0.646 0.545,-1.081 l 1.828,-6.949 10.464,0 2.769,0 c 2.989,0 5.102,-0.496 6.619,-1.492 1.547,-1.012 2.438,-2.514 2.974,-4.506 l 1.657,-6.198 0.24,-0.893 z m -4.996,-0.12 -1.893,7.08 c -0.17,0.641 -0.396,1.111 -0.871,1.411 -0.531,0.32 -1.397,0.486 -2.849,0.486 l -3.649,0 -9.333,0 2.313,-8.646 c 0.16,-0.601 0.371,-1.042 0.876,-1.322 0.585,-0.32 1.562,-0.48 3.254,-0.48 l 2.889,0 6.163,0 0.405,-0.01 c 0.631,-0.005 1.397,-0.015 1.983,0.141 0.557,0.149 0.937,0.509 0.712,1.34 z"
       id="path21"
       inkscape:connector-curvature="0" /><path
       d="m 187.25,404.004 c 1.512,-1.172 2.593,-2.563 2.929,-4.076 0.306,-1.382 0.08,-2.724 -0.48,-3.955 -0.651,-1.411 -1.732,-2.673 -2.944,-3.649 -1.302,-1.057 -2.854,-2.098 -4.491,-3.089 -1.897,-1.146 -3.94,-2.233 -5.873,-3.18 -0.11,-0.055 -0.34,-0.165 -0.656,-0.325 -0.215,-0.11 -0.426,-0.216 -0.631,-0.32 l -0.005,0 c -1.572,-0.801 -2.894,-1.542 -4.141,-2.373 -1.242,-0.831 -2.408,-1.763 -3.67,-2.935 -0.581,-0.54 -1.582,-1.571 -1.772,-2.773 -0.186,-1.182 0.43,-2.583 3.054,-3.965 1.492,-0.791 3.054,-1.462 4.676,-1.978 1.527,-0.485 3.119,-0.847 4.756,-1.036 4.806,-0.571 9.132,-0.941 11.174,-0.576 1.462,0.266 1.117,1.177 -2.443,3.229 -0.931,0.54 -1.537,1.041 -1.877,1.481 -0.275,0.351 -0.396,0.691 -0.396,1.002 0.005,0.335 0.14,0.625 0.39,0.86 0.21,0.211 0.501,0.371 0.841,0.491 0.48,0.175 1.082,0.26 1.712,0.26 0.611,0 1.247,-0.08 1.832,-0.245 1.663,-0.48 3.875,-1.217 5.653,-2.183 0.125,-0.065 0.245,-0.135 0.365,-0.205 1.692,-0.981 2.924,-2.193 2.854,-3.635 -0.07,-1.513 -1.162,-2.514 -2.854,-3.154 -2.684,-1.012 -6.879,-1.121 -10.849,-0.937 -2.548,0.115 -5.012,0.346 -6.894,0.521 l -0.13,0.011 c -2.473,0.229 -4.666,0.57 -6.809,1.041 -2.143,0.476 -4.246,1.076 -6.529,1.827 -2.163,0.711 -3.775,1.542 -4.937,2.453 -1.302,1.031 -2.042,2.163 -2.353,3.35 -0.351,1.347 -0.271,2.789 0.21,4.171 0.47,1.356 1.316,2.653 2.493,3.725 1.467,1.332 3.124,2.519 4.866,3.604 1.742,1.077 3.57,2.053 5.387,2.964 0.295,0.15 0.591,0.301 0.886,0.44 0.23,0.12 0.525,0.261 0.881,0.436 0.486,0.241 0.826,0.406 1.146,0.557 4.747,2.308 10.404,5.057 10.574,7.92 0.06,0.921 -0.601,1.763 -1.672,2.503 -1.392,0.951 -3.439,1.713 -5.557,2.253 -3.69,0.957 -7.795,1.522 -11.956,1.732 -4.416,0.226 -8.897,0.061 -12.998,-0.45 l -0.666,-0.085 c -0.206,-0.025 -0.426,-0.056 -0.676,-0.096 -1.212,-0.16 -2.118,0.141 -2.583,0.611 -0.215,0.22 -0.346,0.471 -0.38,0.741 -0.035,0.28 0.03,0.561 0.2,0.825 0.35,0.536 1.191,1.017 2.618,1.157 3.39,0.325 6.374,0.455 9.152,0.471 2.778,0.015 5.342,-0.08 7.875,-0.211 2.648,-0.13 5.007,-0.37 7.37,-0.751 2.368,-0.391 4.736,-0.921 7.405,-1.637 2.208,-0.594 4.316,-1.581 5.923,-2.817 z"
       id="path23"
       inkscape:connector-curvature="0" /><path
       d="m 360.122,383.707 c 0.391,-0.07 0.726,-0.216 1.012,-0.44 0.4,-0.311 0.681,-0.767 0.841,-1.362 l 0,0 c 0.09,-0.351 0.14,-0.661 0.14,-0.931 0,-0.371 -0.085,-0.677 -0.25,-0.922 l 0,-0.005 c -0.18,-0.261 -0.44,-0.436 -0.781,-0.53 l 0,0 c -0.17,-0.045 -0.36,-0.065 -0.561,-0.065 l -0.4,0 -5.367,0 0.892,-3.595 c 0.11,-0.45 0.12,-0.831 0.029,-1.142 -0.12,-0.37 -0.36,-0.626 -0.74,-0.771 -0.146,-0.056 -0.381,-0.096 -0.721,-0.12 -0.301,-0.021 -0.687,-0.03 -1.162,-0.03 -0.601,0 -1.106,0.16 -1.512,0.476 l 0,-0.005 c -0.396,0.315 -0.671,0.771 -0.821,1.371 l -0.951,3.815 -3.484,0 -1.598,0 c -0.636,0 -1.161,0.175 -1.587,0.53 -0.41,0.341 -0.701,0.842 -0.876,1.492 -0.405,1.512 0.125,2.269 1.567,2.269 l 0,0 2.493,0 2.343,0 -2.343,8.741 -1.052,3.92 c -0.12,0.461 -0.13,0.841 -0.03,1.162 l 0,0 c 0.12,0.37 0.371,0.631 0.762,0.771 0.08,0.03 0.185,0.055 0.32,0.08 0.34,0.055 0.851,0.08 1.532,0.08 l 0,0 c 0.605,0 1.111,-0.16 1.507,-0.476 0.396,-0.316 0.676,-0.776 0.836,-1.372 l 3.454,-12.906 6.008,0 c 0.175,0 0.34,-0.015 0.5,-0.035 z"
       id="path25"
       inkscape:connector-curvature="0" /><path
       d="m 219.342,392.703 0.646,-2.418 2.383,-8.892 c 0.375,-1.396 -0.14,-2.093 -1.552,-2.093 -0.31,0 -0.585,0 -0.831,0.01 -0.13,0.011 -0.25,0.011 -0.36,0.021 -0.34,0.02 -0.586,0.06 -0.741,0.11 l 0,0 c -0.381,0.11 -0.696,0.32 -0.952,0.62 -0.24,0.281 -0.425,0.646 -0.541,1.087 l -3.054,11.37 c -0.14,0.551 -0.35,0.956 -0.891,1.217 l 0,0 c -0.625,0.305 -1.682,0.455 -3.489,0.455 l -9.117,0 0,0.005 c -1.802,0 -2.673,-0.14 -3.019,-0.415 -0.205,-0.171 -0.125,-0.551 0.015,-1.071 l 3.029,-11.315 c 0.125,-0.461 0.135,-0.851 0.035,-1.166 -0.11,-0.376 -0.365,-0.636 -0.751,-0.781 -0.15,-0.056 -0.385,-0.096 -0.716,-0.115 -0.286,-0.021 -0.666,-0.03 -1.157,-0.03 l 0,0 c -0.601,0 -1.102,0.16 -1.502,0.476 -0.396,0.315 -0.671,0.776 -0.831,1.372 l -0.691,2.559 -2.343,8.762 c -0.521,1.942 -0.811,3.409 -0.03,4.48 0.431,0.596 1.171,1.017 2.373,1.271 0.901,0.19 2.053,0.285 3.525,0.285 1.011,0 2.994,0.011 4.997,0.021 2.313,0.02 4.626,0.03 4.997,0.03 l 0,0 c 3.985,0 6.343,-0.481 7.85,-1.452 1.572,-1.002 2.197,-2.464 2.718,-4.403 z"
       id="path27"
       inkscape:connector-curvature="0" /><path
       d="m 426.239,398.496 c 0.66,0 1.201,-0.14 1.632,-0.431 0.44,-0.3 0.741,-0.741 0.896,-1.326 0.104,-0.406 0.085,-0.786 -0.065,-1.122 -0.146,-0.33 -0.41,-0.61 -0.786,-0.841 l -0.005,-0.005 -10.108,-5.838 13.107,-5.768 0,-0.005 c 0.09,-0.035 0.175,-0.075 0.255,-0.12 0.331,-0.165 0.602,-0.365 0.821,-0.586 0.296,-0.301 0.491,-0.641 0.596,-1.026 0.125,-0.476 0.101,-0.886 -0.055,-1.231 -0.101,-0.235 -0.261,-0.431 -0.461,-0.586 -0.19,-0.146 -0.42,-0.25 -0.676,-0.32 l -0.005,0 c -0.07,-0.021 -0.141,-0.035 -0.221,-0.05 -0.671,-0.11 -1.531,0.01 -2.418,0.4 l -14.499,6.408 3.164,-12.501 c 0.115,-0.451 0.125,-0.831 0.035,-1.146 -0.11,-0.371 -0.351,-0.631 -0.735,-0.776 l 0,-0.005 c -0.146,-0.05 -0.386,-0.091 -0.711,-0.11 -0.296,-0.02 -0.677,-0.035 -1.137,-0.035 -0.601,0 -1.111,0.155 -1.513,0.476 -0.39,0.311 -0.67,0.761 -0.82,1.362 l -5.057,19.465 -0.941,3.635 c -0.165,0.642 -0.12,1.146 0.15,1.513 l 0,0 c 0.18,0.255 0.445,0.425 0.791,0.511 0.18,0.04 0.38,0.06 0.596,0.06 0.466,0 0.851,-0.01 1.156,-0.03 0.33,-0.029 0.571,-0.069 0.741,-0.13 l 0,0 c 0.37,-0.12 0.681,-0.33 0.931,-0.626 0.23,-0.28 0.411,-0.636 0.521,-1.062 l 1.326,-4.951 11.365,6.568 c 0.155,0.091 0.426,0.15 0.816,0.19 0.343,0.029 0.778,0.039 1.314,0.039 z"
       id="path29"
       inkscape:connector-curvature="0" /><path
       d="m 362.665,397.735 c 0.246,-0.28 0.431,-0.646 0.546,-1.087 l 2.969,-11.069 c 0.171,-0.646 0.461,-1.126 1.026,-1.437 0.616,-0.346 1.572,-0.516 3.034,-0.516 l 10.169,0 c 0.445,0 0.836,-0.085 1.171,-0.256 0.12,-0.064 0.235,-0.135 0.341,-0.215 0.4,-0.315 0.681,-0.771 0.841,-1.362 0.096,-0.36 0.146,-0.681 0.146,-0.961 0,-0.37 -0.085,-0.681 -0.256,-0.932 -0.175,-0.265 -0.436,-0.44 -0.775,-0.53 l 0,-0.005 c -0.096,-0.025 -0.195,-0.045 -0.296,-0.056 -0.085,-0.01 -0.17,-0.01 -0.26,-0.01 -0.2,0 -4.016,0 -7.641,0.01 -1.617,0 -2.884,0.011 -3.019,0.011 l -0.005,0 c -3.164,0.109 -5.237,0.666 -6.669,1.657 -1.452,1.016 -2.213,2.453 -2.724,4.32 l -1.142,4.186 -1.883,6.899 -0.005,0.005 c -0.175,0.646 -0.125,1.156 0.136,1.532 0.275,0.385 0.74,0.575 1.401,0.575 l 0,0 c 0.12,0 0.24,0 0.351,0 0.341,-0.005 0.621,-0.01 0.852,-0.03 0.34,-0.02 0.591,-0.06 0.74,-0.109 l 0,0 c 0.382,-0.109 0.697,-0.32 0.952,-0.62 z"
       id="path31"
       inkscape:connector-curvature="0" /><path
       d="m 457.58,380.768 c -0.525,-0.615 -1.257,-1.026 -2.123,-1.256 -0.58,-0.155 -1.231,-0.23 -1.912,-0.23 l 0,0 -8.672,0 -3.835,0 c -1.882,0 -3.835,0.271 -5.497,1.171 -1.682,0.906 -3.054,2.443 -3.729,4.962 l -0.646,2.403 -1.156,4.32 c -0.716,2.674 -0.266,4.271 0.937,5.217 0.07,0.056 0.146,0.11 0.22,0.16 1.157,0.771 2.874,0.972 4.856,0.981 l 8.852,0 4.952,0 0,0 c 0.605,0 1.106,-0.16 1.507,-0.471 0.4,-0.32 0.676,-0.775 0.836,-1.372 0.195,-0.74 0.186,-1.316 -0.035,-1.731 -0.255,-0.481 -0.721,-0.716 -1.412,-0.716 l -5.848,0 -6.479,0 c -1.942,0 -2.878,-0.246 -3.209,-0.741 -0.285,-0.426 -0.155,-1.146 0.146,-2.123 l 9.542,0 10.094,0 c 0.501,0 0.937,-0.186 1.292,-0.565 l 0,0 c 0.32,-0.336 0.561,-0.821 0.73,-1.442 l 1.177,-4.396 c 0.165,-0.631 0.245,-1.201 0.245,-1.718 -0.002,-1.021 -0.302,-1.832 -0.833,-2.453 z m -4.336,4.251 -0.511,1.902 -7.86,0 -8.48,0 0.41,-1.512 c 0.15,-0.581 0.381,-1.017 0.967,-1.297 l 0,0 c 0.676,-0.325 1.817,-0.485 3.77,-0.485 l 0,0 0,-0.371 0,0.371 0.355,-0.011 0.932,-0.01 2.047,-0.02 c 1.673,-0.016 3.415,-0.03 3.69,-0.03 2.644,0 3.95,0.15 4.531,0.455 0.34,0.181 0.28,0.532 0.149,1.008 z"
       id="path33"
       inkscape:connector-curvature="0" /><path
       d="m 408.16,385.715 c 0.561,-2.088 0.525,-3.686 -0.495,-4.802 -0.061,-0.061 -0.12,-0.13 -0.19,-0.19 -1.021,-0.946 -2.849,-1.422 -5.772,-1.422 l -7.335,0 -2.919,0 c -2.048,0 -4.2,0.421 -5.948,1.603 -1.437,0.976 -2.588,2.453 -3.169,4.605 l -0.751,2.809 -1.051,3.916 c -0.646,2.418 -0.12,3.975 1.051,4.941 0.045,0.04 0.091,0.075 0.141,0.109 1.201,0.922 3.009,1.212 4.856,1.212 l 7.79,0 2.443,0 c 2.093,0 4.416,-0.351 6.283,-1.521 1.486,-0.927 2.679,-2.354 3.254,-4.496 l 1.127,-4.216 0.685,-2.548 z m -4.911,-0.506 -1.883,7.024 c -0.17,0.625 -0.671,1.061 -1.281,1.356 -1.007,0.48 -2.304,0.596 -3.084,0.596 l -2.634,0 -5.857,0 c -0.682,0 -1.633,-0.045 -2.323,-0.33 -0.556,-0.226 -0.932,-0.642 -0.731,-1.377 l 1.803,-6.724 c 0.24,-0.912 0.941,-1.438 1.742,-1.737 0.861,-0.321 1.853,-0.391 2.573,-0.391 l 2.794,0 5.697,0 c 1.552,0 2.474,0.149 2.944,0.46 0.335,0.227 0.38,0.602 0.24,1.123 z"
       id="path35"
       inkscape:connector-curvature="0" /></g></svg>