<?xml version="1.0" encoding="UTF-8" standalone="no"?>
<!-- Generator: Adobe Illustrator 16.0.0, SVG Export Plug-In . SVG Version: 6.00 Build 0)  -->

<svg
   xmlns:dc="http://purl.org/dc/elements/1.1/"
   xmlns:cc="http://creativecommons.org/ns#"
   xmlns:rdf="http://www.w3.org/1999/02/22-rdf-syntax-ns#"
   xmlns:svg="http://www.w3.org/2000/svg"
   xmlns="http://www.w3.org/2000/svg"
   xmlns:sodipodi="http://sodipodi.sourceforge.net/DTD/sodipodi-0.dtd"
   xmlns:inkscape="http://www.inkscape.org/namespaces/inkscape"
   version="1.1"
   id="레이어_1"
   x="0px"
   y="0px"
   width="387.42871"
   height="41.98349"
   viewBox="0 0 387.42869 41.98349"
   enable-background="new 0 0 595.28 841.89"
   xml:space="preserve"
   inkscape:version="0.91 r13725"
   sodipodi:docname="tigerchoi_logo.svg"
   inkscape:export-filename="C:\wamp\www\shinsoo\images\brand\tigerchoi_logo2.png"
   inkscape:export-xdpi="47.299999"
   inkscape:export-ydpi="47.299999"><metadata
     id="metadata27"><rdf:RDF><cc:Work
         rdf:about=""><dc:format>image/svg+xml</dc:format><dc:type
           rdf:resource="http://purl.org/dc/dcmitype/StillImage" /><dc:title></dc:title></cc:Work></rdf:RDF></metadata><defs
     id="defs25" /><sodipodi:namedview
     pagecolor="#ffffff"
     bordercolor="#666666"
     borderopacity="1"
     objecttolerance="10"
     gridtolerance="10"
     guidetolerance="10"
     inkscape:pageopacity="0"
     inkscape:pageshadow="2"
     inkscape:window-width="1920"
     inkscape:window-height="1017"
     id="namedview23"
     showgrid="false"
     fit-margin-top="0"
     fit-margin-left="0"
     fit-margin-right="0"
     fit-margin-bottom="0"
     inkscape:zoom="0.28032165"
     inkscape:cx="-440.85091"
     inkscape:cy="10.310678"
     inkscape:window-x="1912"
     inkscape:window-y="-8"
     inkscape:window-maximized="1"
     inkscape:current-layer="레이어_1" /><g
     id="g3"
     transform="matrix(1.4557382,0,0,1.4557382,-239.64218,-591.64694)"
     inkscape:export-xdpi="47.299999"
     inkscape:export-ydpi="47.299999"><polygon
       points="176.579,435.109 176.512,411.305 164.619,411.286 164.619,406.561 196.449,406.561 196.449,411.305 184.256,411.267 184.247,435.109 "
       id="polygon5" /><rect
       x="200.201"
       y="406.522"
       width="7.6960001"
       height="28.607"
       id="rect7" /><path
       d="m 241.598,415.066 c -1.977,-1.696 -5.623,-3.048 -9.423,-3.048 -6.567,0 -11.092,4.014 -11.092,8.664 0,4.627 4.525,8.639 11.092,8.639 4.533,0 9.008,-2.739 9.743,-7.02 l -10.11,0 0,-4.05 18.222,0 0,3.781 c 0,5.478 -6.25,13.174 -18.481,13.174 -10.879,0 -18.587,-6.559 -18.587,-14.37 0,-7.833 7.708,-14.374 18.587,-14.374 5.054,0 10.572,1.1 14.941,4.321 l -4.892,4.283 z"
       id="path9"
       inkscape:connector-curvature="0" /><path
       d="m 275.193,412.29 -4.688,0 c -5.883,0 -8.7,3.183 -9.327,5.904 l 14.016,0 0,3.992 -14.016,0 c 0.627,2.739 3.444,7.235 9.327,7.235 l 4.688,0 0,5.708 -4.013,0 c -12.5,0 -17.91,-7.273 -17.91,-14.273 0,-7.004 5.41,-14.276 17.91,-14.276 l 4.013,0 0,5.71 z"
       id="path11"
       inkscape:connector-curvature="0" /><path
       d="m 280.555,435.129 0,-19.349 c 0,-4.283 3.02,-9.356 12.916,-9.356 7.388,0 11.129,4.36 11.129,8.393 0,2.565 -1.555,4.747 -4.521,5.847 4.429,1.292 5.063,3.143 5.063,6.442 l 0,8.023 -7.708,0 0,-7.985 c 0,-2.181 -1.021,-5.016 -4.194,-4.899 l -2.914,0 0.077,-3.57 c 3.329,0 6.502,-0.519 6.502,-3.298 0,-2.181 -2.027,-3.3 -4.312,-3.3 -2.296,0 -4.331,1.119 -4.331,3.3 l 0,19.753 -7.707,0 z"
       id="path13"
       inkscape:connector-curvature="0" /><path
       d="m 346.07,412.251 -5.631,0 c -5.308,0 -9.469,4.554 -9.469,8.624 0,4.069 4.161,8.624 9.469,8.624 l 5.631,0 0,5.746 -6.038,0 c -8.754,0 -17.186,-5.669 -17.186,-14.37 0,-8.7 8.432,-14.393 17.186,-14.393 l 6.038,0 0,5.769 z"
       id="path15"
       inkscape:connector-curvature="0" /><polygon
       points="375.856,435.225 368.16,435.225 368.16,422.109 358.264,422.109 358.264,435.225 350.548,435.225 350.548,406.522 358.264,406.522 358.264,418.386 368.16,418.386 368.16,406.522 375.856,406.522 "
       id="polygon17" /><path
       d="m 388.511,420.875 c 0,4.646 4.069,8.662 10.9,8.662 6.808,0 10.881,-4.016 10.881,-8.662 0,-4.669 -4.073,-8.681 -10.881,-8.681 -6.831,-0.001 -10.9,4.011 -10.9,8.681 m 29.477,0 c 0,7.831 -7.696,14.389 -18.577,14.389 -10.9,0 -18.616,-6.559 -18.616,-14.389 0,-7.852 7.716,-14.412 18.616,-14.412 10.881,-0.001 18.577,6.559 18.577,14.412"
       id="path19"
       inkscape:connector-curvature="0" /><rect
       x="423.04199"
       y="406.48199"
       width="7.7160001"
       height="28.761999"
       id="rect21" /></g></svg>