<?xml version="1.0" encoding="UTF-8" standalone="no"?>
<!-- Generator: Adobe Illustrator 16.0.0, SVG Export Plug-In . SVG Version: 6.00 Build 0)  -->

<svg
   xmlns:dc="http://purl.org/dc/elements/1.1/"
   xmlns:cc="http://creativecommons.org/ns#"
   xmlns:rdf="http://www.w3.org/1999/02/22-rdf-syntax-ns#"
   xmlns:svg="http://www.w3.org/2000/svg"
   xmlns="http://www.w3.org/2000/svg"
   xmlns:sodipodi="http://sodipodi.sourceforge.net/DTD/sodipodi-0.dtd"
   xmlns:inkscape="http://www.inkscape.org/namespaces/inkscape"
   version="1.1"
   id="레이어_1"
   x="0px"
   y="0px"
   width="146.69254"
   height="50"
   viewBox="0 0 146.69253 49.999999"
   enable-background="new 0 0 595.28 841.89"
   xml:space="preserve"
   inkscape:version="0.91 r13725"
   sodipodi:docname="winn_logo.svg"><metadata
     id="metadata79"><rdf:RDF><cc:Work
         rdf:about=""><dc:format>image/svg+xml</dc:format><dc:type
           rdf:resource="http://purl.org/dc/dcmitype/StillImage" /><dc:title></dc:title></cc:Work></rdf:RDF></metadata><defs
     id="defs77" /><sodipodi:namedview
     pagecolor="#ffffff"
     bordercolor="#666666"
     borderopacity="1"
     objecttolerance="10"
     gridtolerance="10"
     guidetolerance="10"
     inkscape:pageopacity="0"
     inkscape:pageshadow="2"
     inkscape:window-width="1112"
     inkscape:window-height="638"
     id="namedview75"
     showgrid="false"
     fit-margin-top="0"
     fit-margin-left="0"
     fit-margin-right="0"
     fit-margin-bottom="0"
     inkscape:zoom="0.28032165"
     inkscape:cx="122.807"
     inkscape:cy="41.680003"
     inkscape:window-x="2114"
     inkscape:window-y="171"
     inkscape:window-maximized="0"
     inkscape:current-layer="레이어_1" /><g
     id="g3"
     transform="matrix(0.5994177,0,0,0.5994177,-104.798,-227.30561)"><g
       id="g5"><path
         d="m 226.261,442.758 0,4.059 -0.292,0 c -0.175,-0.934 -0.368,-1.609 -0.579,-2.018 -0.211,-0.409 -0.501,-0.735 -0.871,-0.975 -0.207,-0.138 -0.567,-0.202 -1.083,-0.202 l -0.823,0 0,11.554 c 0,0.772 0.03,1.251 0.094,1.443 0.063,0.188 0.184,0.358 0.366,0.497 0.182,0.146 0.43,0.22 0.745,0.22 l 0.368,0 0,0.405 -5.782,0 0,-0.405 0.366,0 c 0.322,0 0.579,-0.082 0.774,-0.234 0.14,-0.105 0.252,-0.28 0.333,-0.528 0.06,-0.179 0.09,-0.644 0.09,-1.397 l 0,-11.554 -0.797,0 c -0.745,0 -1.285,0.211 -1.62,0.644 -0.474,0.597 -0.772,1.442 -0.896,2.551 l -0.31,0 0,-4.059 9.917,0 z"
         id="path7"
         inkscape:connector-curvature="0" /><path
         d="m 229.786,442.758 0,5.979 c 0.418,-0.593 0.802,-1.016 1.149,-1.264 0.347,-0.248 0.708,-0.368 1.083,-0.368 0.478,0 0.887,0.184 1.227,0.552 0.338,0.367 0.563,0.8 0.676,1.296 0.11,0.496 0.166,1.333 0.166,2.514 l 0,4.031 c 0,0.79 0.055,1.282 0.163,1.479 0.108,0.193 0.329,0.317 0.659,0.368 l 0,0.396 -3.86,0 0,-0.396 c 0.273,-0.051 0.476,-0.202 0.611,-0.441 0.099,-0.193 0.147,-0.662 0.147,-1.406 l 0,-4.605 c 0,-0.854 -0.025,-1.388 -0.074,-1.608 -0.048,-0.216 -0.131,-0.386 -0.248,-0.506 -0.117,-0.124 -0.248,-0.184 -0.396,-0.184 -0.216,0 -0.427,0.102 -0.634,0.304 -0.207,0.202 -0.43,0.561 -0.669,1.066 l 0,5.533 c 0,0.735 0.042,1.199 0.122,1.384 0.104,0.252 0.315,0.404 0.637,0.464 l 0,0.396 -3.861,0 0,-0.396 c 0.32,-0.046 0.549,-0.184 0.685,-0.423 0.092,-0.156 0.138,-0.635 0.138,-1.425 l 0,-10.497 c 0,-0.781 -0.053,-1.265 -0.158,-1.457 -0.106,-0.188 -0.327,-0.317 -0.665,-0.372 l 0,-0.414 3.102,0 z"
         id="path9"
         inkscape:connector-curvature="0" /><path
         d="m 241.651,452.207 -4.178,0 c 0.048,1.37 0.317,2.454 0.807,3.25 0.375,0.611 0.825,0.914 1.351,0.914 0.326,0 0.623,-0.119 0.889,-0.367 0.265,-0.248 0.549,-0.689 0.855,-1.333 l 0.276,0.243 c -0.412,1.145 -0.869,1.953 -1.367,2.422 -0.501,0.479 -1.078,0.718 -1.735,0.718 -1.128,0 -1.985,-0.589 -2.564,-1.77 -0.466,-0.951 -0.701,-2.128 -0.701,-3.534 0,-1.724 0.342,-3.099 1.029,-4.118 0.687,-1.021 1.491,-1.526 2.415,-1.526 0.77,0 1.441,0.423 2.006,1.287 0.568,0.854 0.873,2.128 0.917,3.814 z m -2.004,-0.74 c 0,-1.186 -0.046,-1.999 -0.143,-2.44 -0.094,-0.44 -0.241,-0.781 -0.443,-1.006 -0.113,-0.134 -0.267,-0.198 -0.455,-0.198 -0.283,0 -0.512,0.185 -0.692,0.562 -0.321,0.657 -0.482,1.553 -0.482,2.697 l 0,0.386 2.215,0 z"
         id="path11"
         inkscape:connector-curvature="0" /><path
         d="m 248.219,442.758 0,5.689 c 0.641,-0.896 1.342,-1.342 2.103,-1.342 0.52,0 1.011,0.202 1.473,0.621 0.462,0.418 0.823,1.006 1.082,1.773 0.262,0.768 0.391,1.65 0.391,2.652 0,1.126 -0.166,2.15 -0.497,3.07 -0.331,0.919 -0.772,1.627 -1.326,2.104 -0.554,0.487 -1.188,0.727 -1.898,0.727 -0.414,0 -0.779,-0.092 -1.099,-0.267 -0.322,-0.175 -0.636,-0.465 -0.947,-0.864 l -1.261,1.121 -0.276,0 0,-13.14 c 0,-0.598 -0.021,-0.966 -0.058,-1.107 -0.055,-0.203 -0.14,-0.359 -0.257,-0.46 -0.117,-0.097 -0.313,-0.156 -0.591,-0.165 l 0,-0.414 3.161,0 z m 0,6.674 0,4.596 c 0,0.938 0.016,1.535 0.05,1.792 0.053,0.437 0.184,0.791 0.391,1.058 0.205,0.267 0.469,0.404 0.789,0.404 0.278,0 0.515,-0.11 0.714,-0.321 0.198,-0.212 0.363,-0.64 0.497,-1.269 0.133,-0.635 0.2,-1.779 0.2,-3.429 0,-1.581 -0.147,-2.671 -0.441,-3.259 -0.211,-0.428 -0.497,-0.639 -0.855,-0.639 -0.467,0 -0.916,0.354 -1.345,1.067 z"
         id="path13"
         inkscape:connector-curvature="0" /><path
         d="m 260.247,452.207 -4.178,0 c 0.048,1.37 0.317,2.454 0.807,3.25 0.375,0.611 0.825,0.914 1.351,0.914 0.326,0 0.623,-0.119 0.889,-0.367 0.264,-0.248 0.549,-0.689 0.855,-1.333 l 0.276,0.243 c -0.412,1.145 -0.869,1.953 -1.368,2.422 -0.501,0.479 -1.078,0.718 -1.735,0.718 -1.128,0 -1.985,-0.589 -2.564,-1.77 -0.466,-0.951 -0.701,-2.128 -0.701,-3.534 0,-1.724 0.343,-3.099 1.03,-4.118 0.687,-1.021 1.491,-1.526 2.415,-1.526 0.77,0 1.441,0.423 2.006,1.287 0.567,0.854 0.873,2.128 0.917,3.814 z m -2.004,-0.74 c 0,-1.186 -0.046,-1.999 -0.143,-2.44 -0.094,-0.44 -0.241,-0.781 -0.443,-1.006 -0.113,-0.134 -0.267,-0.198 -0.455,-0.198 -0.283,0 -0.513,0.185 -0.692,0.562 -0.322,0.657 -0.482,1.553 -0.482,2.697 l 0,0.386 2.215,0 z"
         id="path15"
         inkscape:connector-curvature="0" /><path
         d="m 265.263,447.124 0.122,3.525 -0.276,0 c -0.333,-1.044 -0.675,-1.761 -1.032,-2.146 -0.356,-0.377 -0.71,-0.57 -1.062,-0.57 -0.223,0 -0.414,0.102 -0.57,0.304 -0.159,0.202 -0.237,0.432 -0.237,0.698 0,0.202 0.055,0.396 0.163,0.579 0.172,0.299 0.66,0.818 1.457,1.549 0.797,0.731 1.324,1.356 1.576,1.871 0.253,0.51 0.379,1.084 0.379,1.719 0,0.57 -0.105,1.135 -0.319,1.687 -0.211,0.557 -0.51,0.979 -0.894,1.273 -0.386,0.294 -0.813,0.441 -1.28,0.441 -0.363,0 -0.848,-0.156 -1.457,-0.465 -0.163,-0.082 -0.273,-0.124 -0.333,-0.124 -0.179,0 -0.329,0.185 -0.448,0.552 l -0.269,0 -0.131,-3.709 0.278,0 c 0.244,0.97 0.579,1.7 1.004,2.188 0.427,0.482 0.83,0.731 1.209,0.731 0.262,0 0.476,-0.11 0.641,-0.331 0.165,-0.212 0.248,-0.479 0.248,-0.791 0,-0.349 -0.083,-0.652 -0.246,-0.914 -0.161,-0.258 -0.526,-0.648 -1.089,-1.173 -0.832,-0.781 -1.37,-1.378 -1.613,-1.787 -0.359,-0.603 -0.538,-1.273 -0.538,-2 0,-0.799 0.202,-1.517 0.607,-2.16 0.404,-0.643 0.99,-0.965 1.755,-0.965 0.412,0 0.812,0.134 1.197,0.404 0.145,0.11 0.265,0.166 0.359,0.166 0.096,0 0.174,-0.027 0.234,-0.083 0.06,-0.055 0.156,-0.211 0.285,-0.469 l 0.28,0 z"
         id="path17"
         inkscape:connector-curvature="0" /><path
         d="m 269.209,443.631 0,3.778 1.808,0 0,1.094 -1.808,0 0,6.379 c 0,0.598 0.021,0.983 0.062,1.154 0.041,0.17 0.112,0.313 0.216,0.418 0.104,0.11 0.198,0.165 0.285,0.165 0.352,0 0.687,-0.367 1.002,-1.094 l 0.243,0.239 c -0.438,1.415 -1.153,2.123 -2.142,2.123 -0.482,0 -0.892,-0.184 -1.225,-0.552 -0.335,-0.358 -0.547,-0.767 -0.641,-1.218 -0.053,-0.253 -0.081,-0.928 -0.081,-2.036 l 0,-5.579 -0.993,0 0,-0.386 c 0.683,-0.653 1.266,-1.343 1.746,-2.064 0.48,-0.721 0.899,-1.53 1.257,-2.422 l 0.271,0 z"
         id="path19"
         inkscape:connector-curvature="0" /><path
         d="m 279.297,447.533 2.565,0 0,1.218 -1.457,0 c 0.264,0.358 0.45,0.689 0.554,0.983 0.129,0.396 0.195,0.809 0.195,1.246 0,0.739 -0.151,1.374 -0.453,1.916 -0.301,0.543 -0.71,0.965 -1.229,1.273 -0.52,0.308 -0.979,0.455 -1.381,0.455 -0.032,0 -0.359,-0.019 -0.977,-0.056 -0.243,0 -0.448,0.11 -0.616,0.331 -0.166,0.212 -0.248,0.474 -0.248,0.777 0,0.262 0.076,0.482 0.225,0.652 0.149,0.17 0.391,0.253 0.729,0.253 l 1.409,-0.019 c 1.14,0 1.926,0.165 2.353,0.506 0.614,0.469 0.921,1.194 0.921,2.178 0,0.625 -0.142,1.195 -0.425,1.705 -0.28,0.511 -0.653,0.888 -1.115,1.136 -0.701,0.358 -1.507,0.538 -2.42,0.538 -0.682,0 -1.307,-0.088 -1.873,-0.271 -0.563,-0.18 -0.968,-0.433 -1.213,-0.754 -0.244,-0.317 -0.366,-0.652 -0.366,-1.007 0,-0.34 0.095,-0.644 0.281,-0.914 0.188,-0.267 0.535,-0.497 1.045,-0.681 -0.706,-0.469 -1.057,-1.121 -1.057,-1.967 0,-0.506 0.143,-1.002 0.432,-1.48 0.287,-0.478 0.742,-0.892 1.367,-1.245 -0.729,-0.363 -1.254,-0.837 -1.581,-1.43 -0.324,-0.588 -0.487,-1.269 -0.487,-2.04 0,-1.012 0.304,-1.885 0.913,-2.625 0.606,-0.739 1.39,-1.107 2.344,-1.107 0.506,0.001 1.027,0.139 1.565,0.429 z m -1.889,11.734 c -0.554,0 -0.921,0.064 -1.101,0.188 -0.308,0.229 -0.464,0.538 -0.464,0.929 0,0.377 0.161,0.717 0.48,1.024 0.322,0.304 0.924,0.455 1.809,0.455 0.754,0 1.347,-0.133 1.779,-0.409 0.432,-0.271 0.648,-0.652 0.648,-1.148 0,-0.184 -0.041,-0.34 -0.122,-0.46 -0.147,-0.225 -0.368,-0.377 -0.664,-0.459 -0.296,-0.078 -1.085,-0.12 -2.365,-0.12 z m 0.48,-11.481 c -0.314,0 -0.581,0.221 -0.799,0.647 -0.216,0.433 -0.324,1.324 -0.324,2.68 0,1.099 0.106,1.848 0.322,2.262 0.214,0.404 0.466,0.611 0.761,0.611 0.326,0 0.597,-0.203 0.813,-0.607 0.218,-0.409 0.326,-1.194 0.326,-2.366 0,-1.314 -0.122,-2.216 -0.365,-2.693 -0.175,-0.355 -0.419,-0.534 -0.734,-0.534 z"
         id="path21"
         inkscape:connector-curvature="0" /><path
         d="m 285.157,447.409 0,2.344 c 0.505,-1.066 0.949,-1.774 1.328,-2.123 0.379,-0.35 0.747,-0.524 1.101,-0.524 0.304,0 0.545,0.124 0.729,0.377 0.182,0.258 0.271,0.616 0.271,1.075 0,0.497 -0.087,0.883 -0.265,1.149 -0.177,0.275 -0.388,0.414 -0.639,0.414 -0.287,0 -0.538,-0.129 -0.749,-0.377 -0.211,-0.249 -0.338,-0.391 -0.375,-0.423 -0.055,-0.042 -0.118,-0.064 -0.188,-0.064 -0.156,0 -0.306,0.082 -0.446,0.243 -0.223,0.253 -0.393,0.606 -0.506,1.071 -0.175,0.717 -0.262,1.503 -0.262,2.362 l 0,2.381 0.009,0.615 c 0,0.423 0.019,0.689 0.058,0.81 0.064,0.197 0.161,0.34 0.29,0.432 0.126,0.092 0.342,0.151 0.646,0.175 l 0,0.396 -4.111,0 0,-0.396 c 0.331,-0.037 0.554,-0.161 0.671,-0.368 0.117,-0.211 0.175,-0.768 0.175,-1.663 l 0,-5.718 c 0,-0.588 -0.021,-0.965 -0.064,-1.121 -0.055,-0.212 -0.133,-0.358 -0.237,-0.455 -0.103,-0.097 -0.285,-0.161 -0.544,-0.198 l 0,-0.413 3.108,0 z"
         id="path23"
         inkscape:connector-curvature="0" /><path
         d="m 291.624,447.409 0,8.19 c 0,0.73 0.062,1.194 0.187,1.396 0.126,0.202 0.37,0.322 0.733,0.35 l 0,0.396 -4.111,0 0,-0.396 c 0.335,-0.014 0.586,-0.147 0.749,-0.396 0.108,-0.175 0.164,-0.62 0.164,-1.351 l 0,-6.03 c 0,-0.731 -0.062,-1.195 -0.188,-1.397 -0.124,-0.202 -0.366,-0.321 -0.724,-0.35 l 0,-0.413 3.19,0 z m -1.14,-5.001 c 0.352,0 0.65,0.166 0.896,0.501 0.244,0.336 0.366,0.74 0.366,1.209 0,0.474 -0.124,0.873 -0.37,1.204 -0.248,0.331 -0.544,0.496 -0.892,0.496 -0.348,0 -0.644,-0.165 -0.887,-0.496 -0.246,-0.331 -0.368,-0.73 -0.368,-1.204 0,-0.469 0.122,-0.873 0.368,-1.209 0.243,-0.335 0.54,-0.501 0.887,-0.501 z"
         id="path25"
         inkscape:connector-curvature="0" /><path
         d="m 295.482,456.693 0,3.842 c 0,0.533 0.032,0.892 0.094,1.085 0.062,0.192 0.159,0.331 0.29,0.423 0.131,0.087 0.386,0.129 0.765,0.129 l 0,0.413 -4.341,0 0,-0.413 c 0.338,-0.01 0.586,-0.139 0.749,-0.387 0.108,-0.165 0.164,-0.606 0.164,-1.314 l 0,-10.901 c 0,-0.731 -0.062,-1.195 -0.187,-1.397 -0.126,-0.202 -0.368,-0.321 -0.726,-0.35 l 0,-0.413 3.192,0 0,1.36 c 0.267,-0.528 0.538,-0.91 0.816,-1.149 0.396,-0.345 0.827,-0.515 1.294,-0.515 0.558,0 1.068,0.239 1.528,0.717 0.457,0.479 0.807,1.141 1.045,1.981 0.239,0.841 0.359,1.751 0.359,2.726 0,1.048 -0.125,2.004 -0.37,2.867 -0.248,0.864 -0.607,1.526 -1.076,1.977 -0.468,0.45 -0.992,0.681 -1.567,0.681 -0.418,0 -0.809,-0.129 -1.174,-0.377 -0.271,-0.195 -0.556,-0.521 -0.855,-0.985 z m 0,-1.112 c 0.467,0.896 0.968,1.342 1.499,1.342 0.294,0 0.535,-0.207 0.726,-0.625 0.283,-0.62 0.423,-1.802 0.423,-3.539 0,-1.783 -0.154,-3.001 -0.464,-3.658 -0.207,-0.433 -0.482,-0.653 -0.83,-0.653 -0.549,0 -1,0.543 -1.354,1.618 l 0,5.515 z"
         id="path27"
         inkscape:connector-curvature="0" /><path
         d="m 305.874,447.124 0.124,3.525 -0.276,0 c -0.335,-1.044 -0.678,-1.761 -1.034,-2.146 -0.355,-0.377 -0.71,-0.57 -1.062,-0.57 -0.223,0 -0.413,0.102 -0.569,0.304 -0.159,0.202 -0.237,0.432 -0.237,0.698 0,0.202 0.056,0.396 0.163,0.579 0.173,0.299 0.66,0.818 1.457,1.549 0.798,0.731 1.324,1.356 1.577,1.871 0.252,0.51 0.377,1.084 0.377,1.719 0,0.57 -0.102,1.135 -0.317,1.687 -0.212,0.557 -0.511,0.979 -0.895,1.273 -0.386,0.294 -0.813,0.441 -1.279,0.441 -0.363,0 -0.849,-0.156 -1.457,-0.465 -0.163,-0.082 -0.273,-0.124 -0.333,-0.124 -0.18,0 -0.329,0.185 -0.448,0.552 l -0.27,0 -0.131,-3.709 0.278,0 c 0.243,0.97 0.579,1.7 1.004,2.188 0.428,0.482 0.83,0.731 1.209,0.731 0.262,0 0.476,-0.11 0.642,-0.331 0.165,-0.212 0.248,-0.479 0.248,-0.791 0,-0.349 -0.083,-0.652 -0.246,-0.914 -0.161,-0.258 -0.526,-0.648 -1.089,-1.173 -0.832,-0.781 -1.37,-1.378 -1.613,-1.787 -0.358,-0.603 -0.538,-1.273 -0.538,-2 0,-0.799 0.202,-1.517 0.606,-2.16 0.404,-0.643 0.99,-0.965 1.756,-0.965 0.411,0 0.812,0.134 1.197,0.404 0.145,0.11 0.265,0.166 0.358,0.166 0.097,0 0.175,-0.027 0.234,-0.083 0.06,-0.055 0.156,-0.211 0.285,-0.469 l 0.279,0 z"
         id="path29"
         inkscape:connector-curvature="0" /><path
         d="m 313.19,447.409 0,8.19 c 0,0.73 0.06,1.194 0.188,1.396 0.124,0.202 0.368,0.322 0.731,0.35 l 0,0.396 -4.114,0 0,-0.396 c 0.341,-0.014 0.589,-0.147 0.754,-0.396 0.105,-0.175 0.161,-0.62 0.161,-1.351 l 0,-6.03 c 0,-0.731 -0.06,-1.195 -0.188,-1.397 -0.124,-0.202 -0.368,-0.321 -0.727,-0.35 l 0,-0.413 3.195,0 z m -1.139,-5.001 c 0.354,0 0.648,0.166 0.896,0.501 0.243,0.336 0.367,0.74 0.367,1.209 0,0.474 -0.128,0.873 -0.372,1.204 -0.248,0.331 -0.547,0.496 -0.892,0.496 -0.345,0 -0.644,-0.165 -0.887,-0.496 -0.248,-0.331 -0.368,-0.73 -0.368,-1.204 0,-0.469 0.12,-0.873 0.368,-1.209 0.244,-0.335 0.543,-0.501 0.888,-0.501 z"
         id="path31"
         inkscape:connector-curvature="0" /><path
         d="m 317.212,447.409 0,1.342 c 0.391,-0.579 0.764,-0.993 1.122,-1.259 0.358,-0.258 0.744,-0.387 1.158,-0.387 0.496,0 0.905,0.184 1.231,0.552 0.321,0.377 0.542,0.836 0.652,1.388 0.083,0.423 0.129,1.232 0.129,2.422 l 0,4.022 c 0,0.795 0.056,1.291 0.156,1.488 0.11,0.193 0.331,0.317 0.667,0.368 l 0,0.396 -3.856,0 0,-0.396 c 0.294,-0.051 0.496,-0.212 0.625,-0.487 0.083,-0.184 0.129,-0.644 0.129,-1.369 l 0,-4.597 c 0,-0.846 -0.028,-1.379 -0.074,-1.6 -0.05,-0.221 -0.133,-0.395 -0.248,-0.515 -0.119,-0.124 -0.248,-0.184 -0.386,-0.184 -0.469,0 -0.901,0.45 -1.306,1.36 l 0,5.534 c 0,0.771 0.056,1.264 0.156,1.471 0.11,0.202 0.304,0.335 0.593,0.386 l 0,0.396 -3.851,0 0,-0.396 c 0.316,-0.046 0.547,-0.184 0.685,-0.423 0.092,-0.156 0.138,-0.639 0.138,-1.434 l 0,-5.838 c 0,-0.776 -0.056,-1.264 -0.156,-1.452 -0.11,-0.192 -0.331,-0.321 -0.666,-0.377 l 0,-0.413 3.102,0 z"
         id="path33"
         inkscape:connector-curvature="0" /><path
         d="m 330.932,447.533 2.564,0 0,1.218 -1.457,0 c 0.267,0.358 0.45,0.689 0.552,0.983 0.129,0.396 0.197,0.809 0.197,1.246 0,0.739 -0.151,1.374 -0.455,1.916 -0.299,0.543 -0.708,0.965 -1.227,1.273 -0.52,0.308 -0.979,0.455 -1.384,0.455 -0.027,0 -0.358,-0.019 -0.975,-0.056 -0.243,0 -0.45,0.11 -0.615,0.331 -0.166,0.212 -0.249,0.474 -0.249,0.777 0,0.262 0.074,0.482 0.226,0.652 0.152,0.17 0.391,0.253 0.73,0.253 l 1.407,-0.019 c 1.14,0 1.925,0.165 2.353,0.506 0.616,0.469 0.919,1.194 0.919,2.178 0,0.625 -0.138,1.195 -0.423,1.705 -0.28,0.511 -0.652,0.888 -1.111,1.136 -0.704,0.358 -1.508,0.538 -2.423,0.538 -0.685,0 -1.31,-0.088 -1.87,-0.271 -0.565,-0.18 -0.97,-0.433 -1.214,-0.754 -0.248,-0.317 -0.367,-0.652 -0.367,-1.007 0,-0.34 0.092,-0.644 0.28,-0.914 0.188,-0.267 0.538,-0.497 1.043,-0.681 -0.703,-0.469 -1.057,-1.121 -1.057,-1.967 0,-0.506 0.146,-1.002 0.432,-1.48 0.29,-0.478 0.745,-0.892 1.37,-1.245 -0.727,-0.363 -1.255,-0.837 -1.581,-1.43 -0.322,-0.588 -0.487,-1.269 -0.487,-2.04 0,-1.012 0.303,-1.885 0.91,-2.625 0.606,-0.739 1.393,-1.107 2.344,-1.107 0.506,0.001 1.03,0.139 1.568,0.429 z m -1.89,11.734 c -0.551,0 -0.919,0.064 -1.103,0.188 -0.304,0.229 -0.46,0.538 -0.46,0.929 0,0.377 0.156,0.717 0.479,1.024 0.321,0.304 0.924,0.455 1.811,0.455 0.754,0 1.342,-0.133 1.774,-0.409 0.432,-0.271 0.652,-0.652 0.652,-1.148 0,-0.184 -0.046,-0.34 -0.124,-0.46 -0.147,-0.225 -0.368,-0.377 -0.666,-0.459 -0.295,-0.078 -1.085,-0.12 -2.363,-0.12 z m 0.479,-11.481 c -0.313,0 -0.579,0.221 -0.8,0.647 -0.211,0.433 -0.321,1.324 -0.321,2.68 0,1.099 0.105,1.848 0.321,2.262 0.212,0.404 0.469,0.611 0.763,0.611 0.322,0 0.598,-0.203 0.81,-0.607 0.221,-0.409 0.33,-1.194 0.33,-2.366 0,-1.314 -0.124,-2.216 -0.367,-2.693 -0.176,-0.355 -0.419,-0.534 -0.736,-0.534 z"
         id="path35"
         inkscape:connector-curvature="0" /><path
         d="m 337.224,447.105 c 0.661,0 1.277,0.229 1.848,0.694 0.569,0.464 1.002,1.121 1.301,1.977 0.299,0.854 0.445,1.787 0.445,2.808 0,1.462 -0.275,2.693 -0.827,3.677 -0.662,1.195 -1.572,1.793 -2.739,1.793 -1.149,0 -2.031,-0.547 -2.647,-1.637 -0.62,-1.089 -0.929,-2.353 -0.929,-3.787 0,-1.484 0.313,-2.775 0.947,-3.879 0.633,-1.099 1.497,-1.646 2.601,-1.646 z m 0.032,0.782 c -0.276,0 -0.511,0.143 -0.713,0.423 -0.197,0.285 -0.331,0.846 -0.391,1.683 -0.06,0.836 -0.092,1.999 -0.092,3.483 0,0.791 0.037,1.526 0.115,2.216 0.055,0.519 0.184,0.919 0.381,1.19 0.198,0.271 0.419,0.408 0.667,0.408 0.248,0 0.45,-0.092 0.611,-0.275 0.211,-0.248 0.354,-0.602 0.423,-1.048 0.11,-0.703 0.16,-2.114 0.16,-4.247 0,-1.25 -0.046,-2.114 -0.151,-2.578 -0.105,-0.469 -0.253,-0.809 -0.455,-1.024 -0.142,-0.153 -0.326,-0.231 -0.555,-0.231 z"
         id="path37"
         inkscape:connector-curvature="0" /><path
         d="m 344.205,442.758 0,12.842 c 0,0.73 0.06,1.194 0.188,1.396 0.119,0.202 0.367,0.322 0.73,0.35 l 0,0.396 -4.113,0 0,-0.396 c 0.34,-0.014 0.588,-0.147 0.749,-0.396 0.11,-0.175 0.161,-0.62 0.161,-1.351 l 0,-10.695 c 0,-0.722 -0.06,-1.182 -0.185,-1.389 -0.128,-0.202 -0.367,-0.316 -0.726,-0.344 l 0,-0.414 3.196,0 z"
         id="path39"
         inkscape:connector-curvature="0" /><path
         d="m 348.442,448.493 0,7.17 c 0,0.694 0.055,1.131 0.161,1.306 0.175,0.275 0.496,0.399 0.965,0.377 l 0,0.396 -4.485,0 0,-0.396 c 0.34,-0.01 0.579,-0.064 0.726,-0.161 0.147,-0.097 0.244,-0.234 0.294,-0.413 0.056,-0.18 0.083,-0.547 0.083,-1.108 l 0,-7.17 -1.103,0 0,-1.084 1.103,0 0,-0.759 -0.009,-0.52 c 0,-1.062 0.289,-1.948 0.864,-2.651 0.569,-0.708 1.347,-1.062 2.325,-1.062 0.662,0 1.158,0.17 1.484,0.505 0.322,0.341 0.482,0.718 0.482,1.131 0,0.331 -0.101,0.616 -0.303,0.864 -0.198,0.239 -0.465,0.358 -0.796,0.358 -0.28,0 -0.505,-0.097 -0.671,-0.294 -0.165,-0.202 -0.248,-0.423 -0.248,-0.662 0,-0.068 0.014,-0.202 0.051,-0.413 0.019,-0.12 0.027,-0.239 0.027,-0.35 0,-0.156 -0.027,-0.271 -0.092,-0.345 -0.092,-0.11 -0.193,-0.166 -0.321,-0.166 -0.156,0 -0.285,0.088 -0.396,0.263 -0.105,0.179 -0.156,0.464 -0.156,0.854 l 0.014,1.931 0,1.314 1.126,0 0,1.084 -1.125,0 z"
         id="path41"
         inkscape:connector-curvature="0" /></g><path
       d="m 174.833,398.978 16.564,0 3.53,14.413 6.913,-14.413 11.031,0 2.647,14.413 7.648,-14.413 18.825,0 -21.178,37.943 -13.973,0 c 0,0 -3.383,-14.117 -3.53,-13.382 -0.147,0.735 -6.913,13.382 -6.913,13.382 l -14.707,0 -6.857,-37.943 z"
       id="path43"
       inkscape:connector-curvature="0" /><polygon
       points="237.057,436.921 244.785,398.978 262.729,398.978 255.228,436.921 "
       id="polygon45" /><path
       d="m 264.734,388.557 c -0.197,4.959 -4.702,8.82 -10.058,8.62 -5.354,-0.197 -9.537,-4.38 -9.339,-9.339 0.2,-4.957 4.704,-8.818 10.059,-8.62 5.356,0.199 9.539,4.382 9.338,9.339 z"
       id="path47"
       inkscape:connector-curvature="0" /><path
       d="m 295.231,397.949 c -6.319,0 -10.835,2.896 -12.984,4.621 l 0.71,-3.592 -16.914,0 -7.729,37.943 17.141,0 3.734,-18.892 c 1.48,-5.373 3.987,-5.52 6.48,-5.52 4.412,0 2.941,3.677 2.941,3.677 l -3.971,20.735 18.09,0 c 0,0 4.268,-22.059 4.855,-27.06 0.593,-5 -3.383,-11.912 -12.353,-11.912 z"
       id="path49"
       inkscape:connector-curvature="0" /><path
       d="m 343.474,397.949 c -6.324,0 -10.837,2.896 -12.988,4.621 l 0.713,-3.592 -16.914,0 -7.726,37.943 17.139,0 3.736,-18.892 c 1.48,-5.373 3.985,-5.52 6.48,-5.52 4.412,0 2.941,3.677 2.941,3.677 l -3.971,20.735 18.09,0 c 0,0 4.266,-22.059 4.854,-27.06 0.589,-5 -3.387,-11.912 -12.354,-11.912 z"
       id="path51"
       inkscape:connector-curvature="0" /><g
       id="g53"><path
         stroke-miterlimit="10"
         d="M 392.055,418.413"
         id="path55"
         inkscape:connector-curvature="0"
         style="fill:none;stroke:#000000;stroke-width:0.60000002;stroke-miterlimit:10" /><path
         stroke-miterlimit="10"
         d="M 397.156,418.413"
         id="path57"
         inkscape:connector-curvature="0"
         style="fill:none;stroke:#000000;stroke-width:0.60000002;stroke-miterlimit:10" /><path
         d="m 411.091,419.823 -13.935,0 0,-2.822 13.935,0 c 0.185,0 0.331,-0.149 0.331,-0.331 l 2.418,-14.179 c 0,0.053 -0.166,-0.092 -0.35,-0.092 l -30.849,0 0,-2.822 30.849,0 c 1.737,0 3.153,1.414 3.153,3.153 l -2.418,14.179 c 0.019,1.501 -1.397,2.914 -3.134,2.914 z"
         id="path59"
         inkscape:connector-curvature="0" /><path
         d="m 392.055,419.823 -29.746,0 c -1.742,0 -3.152,-1.413 -3.152,-3.153 l 2.417,-14.179 c -0.019,-1.5 1.393,-2.914 3.135,-2.914 l 12.639,0 0,2.822 -12.639,0 c -0.184,0 -0.331,0.149 -0.331,0.331 l -2.422,14.179 c 0.022,-0.069 0.17,0.089 0.354,0.092 l 29.746,0 0,2.822 z"
         id="path61"
         inkscape:connector-curvature="0" /><path
         d="m 390.124,437.247 -13.936,0 c -1.737,0 -3.152,-1.411 -3.152,-3.153 l 2.344,-13.227 2.776,0.497 -2.326,12.979 c 0.027,-0.051 0.166,0.082 0.358,0.082 l 13.936,0 c 0.184,0 0.34,-0.151 0.34,-0.331 l 5.516,-31 2.775,0.497 -5.496,30.752 c 0.027,1.493 -1.389,2.904 -3.135,2.904 z"
         id="path63"
         inkscape:connector-curvature="0" /><path
         d="m 379.277,415.083 -2.776,-0.496 5.268,-29.53 c -0.019,-1.489 1.397,-2.9 3.135,-2.9 l 13.935,0 c 1.747,0 3.162,1.411 3.162,3.148 l -2.298,12.952 -2.776,-0.496 2.271,-12.704 c -0.019,0.069 -0.175,-0.078 -0.358,-0.078 l -13.935,0 c -0.185,0 -0.331,0.147 -0.331,0.326 l -5.297,29.778 z"
         id="path65"
         inkscape:connector-curvature="0" /></g><g
       id="g67"><g
         id="g69"><path
           d="m 414.883,393.431 -1.678,-3.192 -1.636,0 -0.543,3.169 -1.038,0 1.314,-7.687 3.144,-0.011 c 0.754,0 1.342,0.202 1.783,0.604 0.441,0.405 0.598,0.947 0.478,1.627 -0.092,0.531 -0.344,0.991 -0.763,1.377 -0.423,0.386 -0.91,0.657 -1.471,0.809 l 1.729,3.305 -1.319,0 z m 0.041,-4.509 c 0.377,-0.218 0.589,-0.547 0.662,-0.981 0.073,-0.427 -0.019,-0.744 -0.28,-0.949 -0.262,-0.209 -0.584,-0.311 -0.951,-0.311 l -2.179,0 -0.437,2.574 2.091,0 c 0.368,0 0.735,-0.11 1.094,-0.333 z"
           id="path71"
           inkscape:connector-curvature="0" /></g><path
         d="m 412.355,395.648 c -3.351,0 -5.612,-2.728 -5.042,-6.079 0.569,-3.351 3.769,-6.078 7.114,-6.078 3.355,0 5.616,2.728 5.042,6.078 -0.574,3.35 -3.763,6.079 -7.114,6.079 z m 1.954,-11.441 c -2.955,0 -5.772,2.408 -6.278,5.363 -0.506,2.956 1.489,5.364 4.449,5.364 2.95,0 5.772,-2.408 6.278,-5.364 0.505,-2.955 -1.494,-5.363 -4.449,-5.363 z"
         id="path73"
         inkscape:connector-curvature="0" /></g></g></svg>